<svg width="378" height="102" viewBox="0 0 378 102" fill="none" xmlns="http://www.w3.org/2000/svg">
<path d="M27.3114 16C27.3114 7.71574 34.0271 1 42.3114 1H50.4032H103.718H361.637C369.921 1 376.637 7.71573 376.637 16V85.9219C376.637 94.2061 369.921 100.922 361.637 100.922H41.8221C33.7191 100.922 27.0809 94.4867 26.8293 86.3876L26.6836 81.6971C26.4684 74.7694 22.0574 68.7603 15.8312 65.898C11.5565 63.9328 6.92722 61.5319 3.95073 59.2165C2.43963 58.041 1.49459 56.992 1.14567 56.1411C0.982607 55.7435 0.971219 55.4417 1.03961 55.1975C1.10892 54.9502 1.29438 54.6403 1.74633 54.2924C2.93289 53.3791 5.21194 52.1056 8.0023 50.7026C10.7678 49.3121 13.9606 47.8308 16.921 46.502C23.1663 43.6985 27.3114 37.5366 27.3114 30.6614V16Z" fill="white" stroke="#231F20" stroke-width="2"/>
<path d="M54.9023 26.0576C54.9023 27.0479 54.7764 27.9502 54.5244 28.7646C54.2725 29.5732 53.8975 30.2705 53.3994 30.8564C52.9072 31.4365 52.2949 31.8848 51.5625 32.2012C50.8301 32.5176 49.9805 32.6758 49.0137 32.6758C48.0176 32.6758 47.1475 32.5176 46.4033 32.2012C45.665 31.8848 45.0498 31.4336 44.5576 30.8477C44.0713 30.2617 43.7051 29.5615 43.459 28.7471C43.2188 27.9326 43.0986 27.0303 43.0986 26.04C43.0986 24.7275 43.3154 23.5762 43.749 22.5859C44.1826 21.5957 44.8389 20.8252 45.7178 20.2744C46.6025 19.7236 47.71 19.4482 49.04 19.4482C50.3115 19.4482 51.3809 19.7207 52.248 20.2656C53.1211 20.8105 53.7803 21.5781 54.2256 22.5684C54.6768 23.5527 54.9023 24.7158 54.9023 26.0576ZM44.6719 26.0576C44.6719 27.1475 44.8271 28.0908 45.1377 28.8877C45.4482 29.6846 45.9229 30.2998 46.5615 30.7334C47.2061 31.167 48.0234 31.3838 49.0137 31.3838C50.0098 31.3838 50.8242 31.167 51.457 30.7334C52.0957 30.2998 52.5674 29.6846 52.8721 28.8877C53.1768 28.0908 53.3291 27.1475 53.3291 26.0576C53.3291 24.3994 52.9805 23.1045 52.2832 22.1729C51.5918 21.2354 50.5107 20.7666 49.04 20.7666C48.0439 20.7666 47.2236 20.9805 46.5791 21.4082C45.9346 21.8359 45.4541 22.4453 45.1377 23.2363C44.8271 24.0215 44.6719 24.9619 44.6719 26.0576ZM58.9365 22.8672V28.9229C58.9365 29.04 58.9336 29.1924 58.9277 29.3799C58.9219 29.5615 58.9131 29.7578 58.9014 29.9688C58.8896 30.1738 58.8779 30.373 58.8662 30.5664C58.8604 30.7539 58.8516 30.9092 58.8398 31.0322L64.0957 22.8672H65.8887V32.5H64.5264V26.5938C64.5264 26.4062 64.5293 26.166 64.5352 25.873C64.541 25.5801 64.5498 25.293 64.5615 25.0117C64.5732 24.7246 64.582 24.502 64.5879 24.3438L59.3496 32.5H57.5479V22.8672H58.9365ZM65.168 18.9033C65.1152 19.4951 64.9658 19.9902 64.7197 20.3887C64.4795 20.7871 64.125 21.0889 63.6562 21.2939C63.1875 21.4932 62.5869 21.5928 61.8545 21.5928C61.0986 21.5928 60.4893 21.4961 60.0264 21.3027C59.5693 21.1035 59.2295 20.8047 59.0068 20.4062C58.79 20.0078 58.6611 19.5068 58.6201 18.9033H59.9912C60.0557 19.5479 60.2285 19.9873 60.5098 20.2217C60.791 20.4561 61.248 20.5732 61.8809 20.5732C62.4434 20.5732 62.8857 20.4502 63.208 20.2041C63.5303 19.958 63.7236 19.5244 63.7881 18.9033H65.168ZM68.1738 28.3164V27.0156H72.5332V28.3164H68.1738ZM83.0977 27.666C83.0977 28.457 82.9951 29.1631 82.79 29.7842C82.585 30.4053 82.2891 30.9297 81.9023 31.3574C81.5156 31.7852 81.0469 32.1133 80.4961 32.3418C79.9512 32.5645 79.333 32.6758 78.6416 32.6758C77.9971 32.6758 77.4053 32.5645 76.8662 32.3418C76.333 32.1133 75.8701 31.7852 75.4775 31.3574C75.0908 30.9297 74.7891 30.4053 74.5723 29.7842C74.3613 29.1631 74.2559 28.457 74.2559 27.666C74.2559 26.6113 74.4346 25.7148 74.792 24.9766C75.1494 24.2324 75.6592 23.667 76.3213 23.2803C76.9893 22.8877 77.7832 22.6914 78.7031 22.6914C79.582 22.6914 80.3496 22.8877 81.0059 23.2803C81.668 23.6729 82.1807 24.2412 82.5439 24.9854C82.9131 25.7236 83.0977 26.6172 83.0977 27.666ZM75.7676 27.666C75.7676 28.4395 75.8701 29.1104 76.0752 29.6787C76.2803 30.2471 76.5967 30.6865 77.0244 30.9971C77.4521 31.3076 78.0029 31.4629 78.6768 31.4629C79.3447 31.4629 79.8926 31.3076 80.3203 30.9971C80.7539 30.6865 81.0732 30.2471 81.2783 29.6787C81.4834 29.1104 81.5859 28.4395 81.5859 27.666C81.5859 26.8984 81.4834 26.2363 81.2783 25.6797C81.0732 25.1172 80.7568 24.6836 80.3291 24.3789C79.9014 24.0742 79.3477 23.9219 78.668 23.9219C77.666 23.9219 76.9307 24.2529 76.4619 24.915C75.999 25.5771 75.7676 26.4941 75.7676 27.666ZM87.0088 22.8672V28.9229C87.0088 29.04 87.0059 29.1924 87 29.3799C86.9941 29.5615 86.9854 29.7578 86.9736 29.9688C86.9619 30.1738 86.9502 30.373 86.9385 30.5664C86.9326 30.7539 86.9238 30.9092 86.9121 31.0322L92.168 22.8672H93.9609V32.5H92.5986V26.5938C92.5986 26.4062 92.6016 26.166 92.6074 25.873C92.6133 25.5801 92.6221 25.293 92.6338 25.0117C92.6455 24.7246 92.6543 24.502 92.6602 24.3438L87.4219 32.5H85.6201V22.8672H87.0088ZM93.2402 18.9033C93.1875 19.4951 93.0381 19.9902 92.792 20.3887C92.5518 20.7871 92.1973 21.0889 91.7285 21.2939C91.2598 21.4932 90.6592 21.5928 89.9268 21.5928C89.1709 21.5928 88.5615 21.4961 88.0986 21.3027C87.6416 21.1035 87.3018 20.8047 87.0791 20.4062C86.8623 20.0078 86.7334 19.5068 86.6924 18.9033H88.0635C88.1279 19.5479 88.3008 19.9873 88.582 20.2217C88.8633 20.4561 89.3203 20.5732 89.9531 20.5732C90.5156 20.5732 90.958 20.4502 91.2803 20.2041C91.6025 19.958 91.7959 19.5244 91.8604 18.9033H93.2402ZM98.3818 28.9316H97.4238L97.0195 19.6504H98.7861L98.3818 28.9316ZM96.8438 31.5859C96.8438 31.1758 96.9434 30.8857 97.1426 30.7158C97.3418 30.54 97.5908 30.4521 97.8896 30.4521C98.1826 30.4521 98.4287 30.54 98.6279 30.7158C98.833 30.8857 98.9355 31.1758 98.9355 31.5859C98.9355 31.9902 98.833 32.2861 98.6279 32.4736C98.4287 32.6553 98.1826 32.7461 97.8896 32.7461C97.5908 32.7461 97.3418 32.6553 97.1426 32.4736C96.9434 32.2861 96.8438 31.9902 96.8438 31.5859ZM109.131 20.7842C108.539 20.7842 107.991 20.8516 107.487 20.9863C106.989 21.1211 106.538 21.2822 106.134 21.4697L105.519 20.2129C106.017 19.9727 106.579 19.7881 107.206 19.6592C107.833 19.5303 108.48 19.4658 109.148 19.4658C110.174 19.4658 111.064 19.624 111.82 19.9404C112.582 20.251 113.212 20.6934 113.71 21.2676C114.208 21.8418 114.58 22.5186 114.826 23.2979C115.072 24.0771 115.195 24.9326 115.195 25.8643C115.195 27.2529 114.967 28.457 114.51 29.4766C114.053 30.4961 113.364 31.2842 112.444 31.8408C111.53 32.3975 110.385 32.6758 109.008 32.6758C108.264 32.6758 107.631 32.6318 107.109 32.5439C106.594 32.4619 106.09 32.333 105.598 32.1572V30.8564C106.096 30.9912 106.603 31.1113 107.118 31.2168C107.64 31.3164 108.193 31.3662 108.779 31.3662C109.564 31.3662 110.253 31.2578 110.845 31.041C111.442 30.8242 111.943 30.5049 112.348 30.083C112.752 29.6611 113.06 29.1455 113.271 28.5361C113.487 27.9268 113.604 27.2295 113.622 26.4443H107.268V25.126H113.604C113.552 24.4463 113.411 23.8398 113.183 23.3066C112.954 22.7676 112.646 22.3105 112.26 21.9355C111.873 21.5605 111.416 21.2764 110.889 21.083C110.367 20.8838 109.781 20.7842 109.131 20.7842ZM124.424 24.1064H121.251V32.5H119.81V24.1064H116.681V22.8672H124.424V24.1064ZM129.935 22.709C131.083 22.709 131.936 22.9668 132.492 23.4824C133.049 23.998 133.327 24.8213 133.327 25.9521V32.5H132.264L131.982 31.0762H131.912C131.643 31.4277 131.361 31.7236 131.068 31.9639C130.775 32.1982 130.436 32.377 130.049 32.5C129.668 32.6172 129.199 32.6758 128.643 32.6758C128.057 32.6758 127.535 32.5732 127.078 32.3682C126.627 32.1631 126.27 31.8525 126.006 31.4365C125.748 31.0205 125.619 30.4932 125.619 29.8545C125.619 28.8936 126 28.1553 126.762 27.6396C127.523 27.124 128.684 26.8428 130.242 26.7959L131.903 26.7256V26.1367C131.903 25.3047 131.725 24.7217 131.367 24.3877C131.01 24.0537 130.506 23.8867 129.855 23.8867C129.352 23.8867 128.871 23.96 128.414 24.1064C127.957 24.2529 127.523 24.4258 127.113 24.625L126.665 23.5176C127.099 23.2949 127.597 23.1045 128.159 22.9463C128.722 22.7881 129.313 22.709 129.935 22.709ZM131.886 27.7539L130.418 27.8154C129.217 27.8623 128.37 28.0586 127.878 28.4043C127.386 28.75 127.14 29.2393 127.14 29.8721C127.14 30.4229 127.307 30.8301 127.641 31.0938C127.975 31.3574 128.417 31.4893 128.968 31.4893C129.823 31.4893 130.523 31.252 131.068 30.7773C131.613 30.3027 131.886 29.5908 131.886 28.6416V27.7539ZM148.233 32.5H146.748V24.0889H143.821C143.704 25.6064 143.555 26.9072 143.373 27.9912C143.197 29.0693 142.975 29.9512 142.705 30.6367C142.441 31.3164 142.119 31.8174 141.738 32.1396C141.363 32.4561 140.915 32.6143 140.394 32.6143C140.235 32.6143 140.086 32.6055 139.945 32.5879C139.805 32.5703 139.685 32.541 139.585 32.5V31.3926C139.661 31.416 139.74 31.4336 139.822 31.4453C139.91 31.457 140.001 31.4629 140.095 31.4629C140.358 31.4629 140.599 31.3545 140.815 31.1377C141.038 30.915 141.237 30.5811 141.413 30.1357C141.595 29.6904 141.756 29.1279 141.896 28.4482C142.037 27.7627 142.16 26.957 142.266 26.0312C142.377 25.0996 142.474 24.0449 142.556 22.8672H148.233V32.5ZM159.615 27.666C159.615 28.457 159.513 29.1631 159.308 29.7842C159.103 30.4053 158.807 30.9297 158.42 31.3574C158.033 31.7852 157.564 32.1133 157.014 32.3418C156.469 32.5645 155.851 32.6758 155.159 32.6758C154.515 32.6758 153.923 32.5645 153.384 32.3418C152.851 32.1133 152.388 31.7852 151.995 31.3574C151.608 30.9297 151.307 30.4053 151.09 29.7842C150.879 29.1631 150.773 28.457 150.773 27.666C150.773 26.6113 150.952 25.7148 151.31 24.9766C151.667 24.2324 152.177 23.667 152.839 23.2803C153.507 22.8877 154.301 22.6914 155.221 22.6914C156.1 22.6914 156.867 22.8877 157.523 23.2803C158.186 23.6729 158.698 24.2412 159.062 24.9854C159.431 25.7236 159.615 26.6172 159.615 27.666ZM152.285 27.666C152.285 28.4395 152.388 29.1104 152.593 29.6787C152.798 30.2471 153.114 30.6865 153.542 30.9971C153.97 31.3076 154.521 31.4629 155.194 31.4629C155.862 31.4629 156.41 31.3076 156.838 30.9971C157.271 30.6865 157.591 30.2471 157.796 29.6787C158.001 29.1104 158.104 28.4395 158.104 27.666C158.104 26.8984 158.001 26.2363 157.796 25.6797C157.591 25.1172 157.274 24.6836 156.847 24.3789C156.419 24.0742 155.865 23.9219 155.186 23.9219C154.184 23.9219 153.448 24.2529 152.979 24.915C152.517 25.5771 152.285 26.4941 152.285 27.666ZM167.754 22.8672H169.362L165.205 27.5166L169.696 32.5H167.982L163.605 27.6133V32.5H162.138V22.8672H163.605V27.543L167.754 22.8672ZM175.04 22.709C176.188 22.709 177.041 22.9668 177.598 23.4824C178.154 23.998 178.433 24.8213 178.433 25.9521V32.5H177.369L177.088 31.0762H177.018C176.748 31.4277 176.467 31.7236 176.174 31.9639C175.881 32.1982 175.541 32.377 175.154 32.5C174.773 32.6172 174.305 32.6758 173.748 32.6758C173.162 32.6758 172.641 32.5732 172.184 32.3682C171.732 32.1631 171.375 31.8525 171.111 31.4365C170.854 31.0205 170.725 30.4932 170.725 29.8545C170.725 28.8936 171.105 28.1553 171.867 27.6396C172.629 27.124 173.789 26.8428 175.348 26.7959L177.009 26.7256V26.1367C177.009 25.3047 176.83 24.7217 176.473 24.3877C176.115 24.0537 175.611 23.8867 174.961 23.8867C174.457 23.8867 173.977 23.96 173.52 24.1064C173.062 24.2529 172.629 24.4258 172.219 24.625L171.771 23.5176C172.204 23.2949 172.702 23.1045 173.265 22.9463C173.827 22.7881 174.419 22.709 175.04 22.709ZM176.991 27.7539L175.523 27.8154C174.322 27.8623 173.476 28.0586 172.983 28.4043C172.491 28.75 172.245 29.2393 172.245 29.8721C172.245 30.4229 172.412 30.8301 172.746 31.0938C173.08 31.3574 173.522 31.4893 174.073 31.4893C174.929 31.4893 175.629 31.252 176.174 30.7773C176.719 30.3027 176.991 29.5908 176.991 28.6416V27.7539ZM190.816 35.8311H189.393V32.5H181.438V22.8672H182.906V31.2607H188.013V22.8672H189.472V31.2783H190.816V35.8311ZM194.095 22.8672V28.9229C194.095 29.04 194.092 29.1924 194.086 29.3799C194.08 29.5615 194.071 29.7578 194.06 29.9688C194.048 30.1738 194.036 30.373 194.024 30.5664C194.019 30.7539 194.01 30.9092 193.998 31.0322L199.254 22.8672H201.047V32.5H199.685V26.5938C199.685 26.4062 199.688 26.166 199.693 25.873C199.699 25.5801 199.708 25.293 199.72 25.0117C199.731 24.7246 199.74 24.502 199.746 24.3438L194.508 32.5H192.706V22.8672H194.095ZM204.615 32.5H202.91L205.688 28.4395C205.283 28.3516 204.908 28.2021 204.562 27.9912C204.217 27.7744 203.936 27.4785 203.719 27.1035C203.508 26.7285 203.402 26.2627 203.402 25.7061C203.402 24.7803 203.71 24.0771 204.325 23.5967C204.946 23.1104 205.764 22.8672 206.777 22.8672H211.04V32.5H209.581V28.6328H207.138L204.615 32.5ZM204.817 25.7148C204.817 26.2891 205.022 26.7168 205.433 26.998C205.843 27.2734 206.429 27.4111 207.19 27.4111H209.581V24.0889H206.936C206.186 24.0889 205.644 24.2412 205.31 24.5459C204.981 24.8447 204.817 25.2344 204.817 25.7148ZM226.447 25.2842C226.447 25.8877 226.271 26.3594 225.92 26.6992C225.568 27.0332 225.114 27.2588 224.558 27.376V27.4463C225.161 27.5283 225.68 27.7451 226.113 28.0967C226.553 28.4424 226.772 28.9727 226.772 29.6875C226.772 30.2383 226.641 30.7246 226.377 31.1465C226.113 31.5684 225.7 31.8994 225.138 32.1396C224.575 32.3799 223.843 32.5 222.94 32.5H218.792V22.8672H222.905C223.597 22.8672 224.206 22.9463 224.733 23.1045C225.267 23.2568 225.686 23.5088 225.99 23.8604C226.295 24.2119 226.447 24.6865 226.447 25.2842ZM225.252 29.6875C225.252 29.1191 225.035 28.709 224.602 28.457C224.174 28.2051 223.55 28.0791 222.729 28.0791H220.26V31.3135H222.765C223.573 31.3135 224.188 31.1904 224.61 30.9443C225.038 30.6924 225.252 30.2734 225.252 29.6875ZM224.962 25.4512C224.962 24.9941 224.795 24.6543 224.461 24.4316C224.127 24.2031 223.579 24.0889 222.817 24.0889H220.26V26.8574H222.562C223.354 26.8574 223.951 26.7432 224.355 26.5146C224.76 26.2861 224.962 25.9316 224.962 25.4512ZM237.662 32.6758C236.795 32.6758 236.03 32.4971 235.368 32.1396C234.706 31.7822 234.19 31.2373 233.821 30.5049C233.452 29.7725 233.268 28.8496 233.268 27.7363C233.268 26.5703 233.461 25.6182 233.848 24.8799C234.24 24.1357 234.779 23.585 235.465 23.2275C236.15 22.8701 236.93 22.6914 237.803 22.6914C238.283 22.6914 238.746 22.7412 239.191 22.8408C239.643 22.9346 240.012 23.0547 240.299 23.2012L239.859 24.4229C239.566 24.3057 239.227 24.2002 238.84 24.1064C238.459 24.0127 238.102 23.9658 237.768 23.9658C237.1 23.9658 236.543 24.1094 236.098 24.3965C235.658 24.6836 235.327 25.1055 235.104 25.6621C234.888 26.2188 234.779 26.9043 234.779 27.7188C234.779 28.498 234.885 29.1631 235.096 29.7139C235.312 30.2646 235.632 30.6865 236.054 30.9795C236.481 31.2666 237.015 31.4102 237.653 31.4102C238.163 31.4102 238.623 31.3574 239.033 31.252C239.443 31.1406 239.815 31.0117 240.149 30.8652V32.166C239.827 32.3301 239.467 32.4561 239.068 32.5439C238.676 32.6318 238.207 32.6758 237.662 32.6758ZM249 24.1064H245.827V32.5H244.386V24.1064H241.257V22.8672H249V24.1064ZM254.511 22.709C255.659 22.709 256.512 22.9668 257.068 23.4824C257.625 23.998 257.903 24.8213 257.903 25.9521V32.5H256.84L256.559 31.0762H256.488C256.219 31.4277 255.938 31.7236 255.645 31.9639C255.352 32.1982 255.012 32.377 254.625 32.5C254.244 32.6172 253.775 32.6758 253.219 32.6758C252.633 32.6758 252.111 32.5732 251.654 32.3682C251.203 32.1631 250.846 31.8525 250.582 31.4365C250.324 31.0205 250.195 30.4932 250.195 29.8545C250.195 28.8936 250.576 28.1553 251.338 27.6396C252.1 27.124 253.26 26.8428 254.818 26.7959L256.479 26.7256V26.1367C256.479 25.3047 256.301 24.7217 255.943 24.3877C255.586 24.0537 255.082 23.8867 254.432 23.8867C253.928 23.8867 253.447 23.96 252.99 24.1064C252.533 24.2529 252.1 24.4258 251.689 24.625L251.241 23.5176C251.675 23.2949 252.173 23.1045 252.735 22.9463C253.298 22.7881 253.89 22.709 254.511 22.709ZM256.462 27.7539L254.994 27.8154C253.793 27.8623 252.946 28.0586 252.454 28.4043C251.962 28.75 251.716 29.2393 251.716 29.8721C251.716 30.4229 251.883 30.8301 252.217 31.0938C252.551 31.3574 252.993 31.4893 253.544 31.4893C254.399 31.4893 255.1 31.252 255.645 30.7773C256.189 30.3027 256.462 29.5908 256.462 28.6416V27.7539ZM267.967 22.8672V31.2607H269.347V35.8311H267.932V32.5H261.111V35.8311H259.714V31.2607H260.47C261.021 30.499 261.478 29.6641 261.841 28.7559C262.204 27.8477 262.479 26.8955 262.667 25.8994C262.854 24.8975 262.954 23.8867 262.966 22.8672H267.967ZM266.552 24.0273H264.267C264.214 24.8828 264.088 25.7529 263.889 26.6377C263.695 27.5225 263.438 28.3662 263.115 29.1689C262.793 29.9658 262.418 30.6631 261.99 31.2607H266.552V24.0273ZM272.651 22.8672V28.9229C272.651 29.04 272.648 29.1924 272.643 29.3799C272.637 29.5615 272.628 29.7578 272.616 29.9688C272.604 30.1738 272.593 30.373 272.581 30.5664C272.575 30.7539 272.566 30.9092 272.555 31.0322L277.811 22.8672H279.604V32.5H278.241V26.5938C278.241 26.4062 278.244 26.166 278.25 25.873C278.256 25.5801 278.265 25.293 278.276 25.0117C278.288 24.7246 278.297 24.502 278.303 24.3438L273.064 32.5H271.263V22.8672H272.651ZM284.095 22.8672V28.9229C284.095 29.04 284.092 29.1924 284.086 29.3799C284.08 29.5615 284.071 29.7578 284.06 29.9688C284.048 30.1738 284.036 30.373 284.024 30.5664C284.019 30.7539 284.01 30.9092 283.998 31.0322L289.254 22.8672H291.047V32.5H289.685V26.5938C289.685 26.4062 289.688 26.166 289.693 25.873C289.699 25.5801 289.708 25.293 289.72 25.0117C289.731 24.7246 289.74 24.502 289.746 24.3438L284.508 32.5H282.706V22.8672H284.095ZM48.0645 47.6914C49.2656 47.6914 50.2236 48.1045 50.9385 48.9307C51.6533 49.7568 52.0107 50.999 52.0107 52.6572C52.0107 53.7529 51.8467 54.6729 51.5186 55.417C51.1904 56.1611 50.7275 56.7236 50.1299 57.1045C49.5381 57.4854 48.8379 57.6758 48.0293 57.6758C47.5195 57.6758 47.0713 57.6084 46.6846 57.4736C46.2979 57.3389 45.9668 57.1572 45.6914 56.9287C45.416 56.7002 45.1875 56.4512 45.0059 56.1816H44.9004C44.918 56.4102 44.9385 56.6855 44.9619 57.0078C44.9912 57.3301 45.0059 57.6113 45.0059 57.8516V61.8066H43.5381V47.8672H44.7422L44.9355 49.291H45.0059C45.1934 48.998 45.4219 48.7314 45.6914 48.4912C45.9609 48.2451 46.2891 48.0518 46.6758 47.9111C47.0684 47.7646 47.5312 47.6914 48.0645 47.6914ZM47.8096 48.9219C47.1416 48.9219 46.6025 49.0508 46.1924 49.3086C45.7881 49.5664 45.4922 49.9531 45.3047 50.4688C45.1172 50.9785 45.0176 51.6201 45.0059 52.3936V52.6748C45.0059 53.4893 45.0938 54.1777 45.2695 54.7402C45.4512 55.3027 45.7471 55.7305 46.1572 56.0234C46.5732 56.3164 47.1299 56.4629 47.8271 56.4629C48.4248 56.4629 48.9229 56.3018 49.3213 55.9795C49.7197 55.6572 50.0156 55.209 50.209 54.6348C50.4082 54.0547 50.5078 53.3896 50.5078 52.6396C50.5078 51.5029 50.2852 50.6006 49.8398 49.9326C49.4004 49.2588 48.7236 48.9219 47.8096 48.9219ZM58.1631 47.709C59.3115 47.709 60.1641 47.9668 60.7207 48.4824C61.2773 48.998 61.5557 49.8213 61.5557 50.9521V57.5H60.4922L60.2109 56.0762H60.1406C59.8711 56.4277 59.5898 56.7236 59.2969 56.9639C59.0039 57.1982 58.6641 57.377 58.2773 57.5C57.8965 57.6172 57.4277 57.6758 56.8711 57.6758C56.2852 57.6758 55.7637 57.5732 55.3066 57.3682C54.8555 57.1631 54.498 56.8525 54.2344 56.4365C53.9766 56.0205 53.8477 55.4932 53.8477 54.8545C53.8477 53.8936 54.2285 53.1553 54.9902 52.6396C55.752 52.124 56.9121 51.8428 58.4707 51.7959L60.1318 51.7256V51.1367C60.1318 50.3047 59.9531 49.7217 59.5957 49.3877C59.2383 49.0537 58.7344 48.8867 58.084 48.8867C57.5801 48.8867 57.0996 48.96 56.6426 49.1064C56.1855 49.2529 55.752 49.4258 55.3418 49.625L54.8936 48.5176C55.3271 48.2949 55.8252 48.1045 56.3877 47.9463C56.9502 47.7881 57.542 47.709 58.1631 47.709ZM60.1143 52.7539L58.6465 52.8154C57.4453 52.8623 56.5986 53.0586 56.1064 53.4043C55.6143 53.75 55.3682 54.2393 55.3682 54.8721C55.3682 55.4229 55.5352 55.8301 55.8691 56.0938C56.2031 56.3574 56.6455 56.4893 57.1963 56.4893C58.0518 56.4893 58.752 56.252 59.2969 55.7773C59.8418 55.3027 60.1143 54.5908 60.1143 53.6416V52.7539ZM67.04 47.6914C67.7607 47.6914 68.3848 47.791 68.9121 47.9902C69.4395 48.1836 69.8467 48.4678 70.1338 48.8428C70.4209 49.2178 70.5645 49.6748 70.5645 50.2139C70.5645 50.7939 70.4062 51.2568 70.0898 51.6025C69.7734 51.9482 69.3369 52.1973 68.7803 52.3496V52.4199C69.1729 52.5254 69.5273 52.6777 69.8438 52.877C70.166 53.0703 70.4209 53.3281 70.6084 53.6504C70.8018 53.9668 70.8984 54.3623 70.8984 54.8369C70.8984 55.376 70.752 55.8623 70.459 56.2959C70.166 56.7236 69.7207 57.0605 69.123 57.3066C68.5254 57.5527 67.7695 57.6758 66.8555 57.6758C66.4043 57.6758 65.9766 57.6494 65.5723 57.5967C65.168 57.5498 64.8018 57.4795 64.4736 57.3857C64.1455 57.292 63.8584 57.1807 63.6123 57.0518V55.7246C64.0225 55.9238 64.5029 56.0996 65.0537 56.252C65.6045 56.4043 66.1992 56.4805 66.8379 56.4805C67.3301 56.4805 67.7725 56.4248 68.165 56.3135C68.5576 56.1963 68.8682 56.0117 69.0967 55.7598C69.3311 55.502 69.4482 55.165 69.4482 54.749C69.4482 54.3682 69.3457 54.0547 69.1406 53.8086C68.9355 53.5566 68.6279 53.3721 68.2178 53.2549C67.8135 53.1318 67.3008 53.0703 66.6797 53.0703H65.3877V51.875H66.4512C67.2773 51.875 67.9365 51.7578 68.4287 51.5234C68.9209 51.2891 69.167 50.8936 69.167 50.3369C69.167 49.8564 68.9766 49.499 68.5957 49.2646C68.2148 49.0244 67.6699 48.9043 66.9609 48.9043C66.4336 48.9043 65.9678 48.96 65.5635 49.0713C65.1592 49.1768 64.7227 49.3291 64.2539 49.5283L63.7354 48.3594C64.2393 48.1367 64.7666 47.9697 65.3174 47.8584C65.8682 47.7471 66.4424 47.6914 67.04 47.6914ZM77.7891 47.6914C78.9902 47.6914 79.9482 48.1045 80.6631 48.9307C81.3779 49.7568 81.7354 50.999 81.7354 52.6572C81.7354 53.7529 81.5713 54.6729 81.2432 55.417C80.915 56.1611 80.4521 56.7236 79.8545 57.1045C79.2627 57.4854 78.5625 57.6758 77.7539 57.6758C77.2441 57.6758 76.7959 57.6084 76.4092 57.4736C76.0225 57.3389 75.6914 57.1572 75.416 56.9287C75.1406 56.7002 74.9121 56.4512 74.7305 56.1816H74.625C74.6426 56.4102 74.6631 56.6855 74.6865 57.0078C74.7158 57.3301 74.7305 57.6113 74.7305 57.8516V61.8066H73.2627V47.8672H74.4668L74.6602 49.291H74.7305C74.918 48.998 75.1465 48.7314 75.416 48.4912C75.6855 48.2451 76.0137 48.0518 76.4004 47.9111C76.793 47.7646 77.2559 47.6914 77.7891 47.6914ZM77.5342 48.9219C76.8662 48.9219 76.3271 49.0508 75.917 49.3086C75.5127 49.5664 75.2168 49.9531 75.0293 50.4688C74.8418 50.9785 74.7422 51.6201 74.7305 52.3936V52.6748C74.7305 53.4893 74.8184 54.1777 74.9941 54.7402C75.1758 55.3027 75.4717 55.7305 75.8818 56.0234C76.2979 56.3164 76.8545 56.4629 77.5518 56.4629C78.1494 56.4629 78.6475 56.3018 79.0459 55.9795C79.4443 55.6572 79.7402 55.209 79.9336 54.6348C80.1328 54.0547 80.2324 53.3896 80.2324 52.6396C80.2324 51.5029 80.0098 50.6006 79.5645 49.9326C79.125 49.2588 78.4482 48.9219 77.5342 48.9219ZM87.8877 47.709C89.0361 47.709 89.8887 47.9668 90.4453 48.4824C91.002 48.998 91.2803 49.8213 91.2803 50.9521V57.5H90.2168L89.9355 56.0762H89.8652C89.5957 56.4277 89.3145 56.7236 89.0215 56.9639C88.7285 57.1982 88.3887 57.377 88.002 57.5C87.6211 57.6172 87.1523 57.6758 86.5957 57.6758C86.0098 57.6758 85.4883 57.5732 85.0312 57.3682C84.5801 57.1631 84.2227 56.8525 83.959 56.4365C83.7012 56.0205 83.5723 55.4932 83.5723 54.8545C83.5723 53.8936 83.9531 53.1553 84.7148 52.6396C85.4766 52.124 86.6367 51.8428 88.1953 51.7959L89.8564 51.7256V51.1367C89.8564 50.3047 89.6777 49.7217 89.3203 49.3877C88.9629 49.0537 88.459 48.8867 87.8086 48.8867C87.3047 48.8867 86.8242 48.96 86.3672 49.1064C85.9102 49.2529 85.4766 49.4258 85.0664 49.625L84.6182 48.5176C85.0518 48.2949 85.5498 48.1045 86.1123 47.9463C86.6748 47.7881 87.2666 47.709 87.8877 47.709ZM89.8389 52.7539L88.3711 52.8154C87.1699 52.8623 86.3232 53.0586 85.8311 53.4043C85.3389 53.75 85.0928 54.2393 85.0928 54.8721C85.0928 55.4229 85.2598 55.8301 85.5938 56.0938C85.9277 56.3574 86.3701 56.4893 86.9209 56.4893C87.7764 56.4893 88.4766 56.252 89.0215 55.7773C89.5664 55.3027 89.8389 54.5908 89.8389 53.6416V52.7539ZM93.7852 51.7168C93.7852 50.3457 93.917 49.1768 94.1807 48.21C94.4443 47.2373 94.8516 46.458 95.4023 45.8721C95.959 45.2803 96.6738 44.876 97.5469 44.6592C98.2969 44.4541 99.0586 44.2783 99.832 44.1318C100.605 43.9795 101.358 43.8477 102.091 43.7363L102.346 45.0195C101.977 45.0723 101.59 45.1338 101.186 45.2041C100.781 45.2686 100.377 45.3389 99.9727 45.415C99.5684 45.4854 99.1875 45.5615 98.8301 45.6436C98.4727 45.7197 98.1562 45.7988 97.8809 45.8809C97.3828 46.0156 96.9521 46.25 96.5889 46.584C96.2314 46.918 95.9473 47.3779 95.7363 47.9639C95.5312 48.5498 95.4082 49.2881 95.3672 50.1787H95.4727C95.6484 49.9209 95.8887 49.666 96.1934 49.4141C96.498 49.1621 96.8613 48.9541 97.2832 48.79C97.7051 48.6201 98.1797 48.5352 98.707 48.5352C99.5391 48.5352 100.233 48.7168 100.79 49.0801C101.347 49.4375 101.766 49.9414 102.047 50.5918C102.328 51.2422 102.469 52.0039 102.469 52.877C102.469 53.9258 102.287 54.8076 101.924 55.5225C101.566 56.2373 101.062 56.7764 100.412 57.1396C99.7617 57.4971 98.9971 57.6758 98.1182 57.6758C97.4385 57.6758 96.8291 57.5439 96.29 57.2803C95.7568 57.0166 95.3027 56.6299 94.9277 56.1201C94.5586 55.6104 94.2744 54.9863 94.0752 54.248C93.8818 53.5098 93.7852 52.666 93.7852 51.7168ZM98.2324 56.4629C98.7891 56.4629 99.2666 56.3457 99.665 56.1113C100.069 55.877 100.38 55.5078 100.597 55.0039C100.819 54.4941 100.931 53.832 100.931 53.0176C100.931 51.998 100.734 51.2012 100.342 50.627C99.9551 50.0469 99.334 49.7568 98.4785 49.7568C97.9453 49.7568 97.4619 49.8711 97.0283 50.0996C96.5947 50.3223 96.2285 50.5889 95.9297 50.8994C95.6309 51.21 95.4141 51.4883 95.2793 51.7344C95.2793 52.332 95.3232 52.9121 95.4111 53.4746C95.499 54.0371 95.6514 54.5439 95.8682 54.9951C96.085 55.4463 96.3838 55.8037 96.7646 56.0674C97.1514 56.3311 97.6406 56.4629 98.2324 56.4629ZM113.297 52.666C113.297 53.457 113.194 54.1631 112.989 54.7842C112.784 55.4053 112.488 55.9297 112.102 56.3574C111.715 56.7852 111.246 57.1133 110.695 57.3418C110.15 57.5645 109.532 57.6758 108.841 57.6758C108.196 57.6758 107.604 57.5645 107.065 57.3418C106.532 57.1133 106.069 56.7852 105.677 56.3574C105.29 55.9297 104.988 55.4053 104.771 54.7842C104.561 54.1631 104.455 53.457 104.455 52.666C104.455 51.6113 104.634 50.7148 104.991 49.9766C105.349 49.2324 105.858 48.667 106.521 48.2803C107.188 47.8877 107.982 47.6914 108.902 47.6914C109.781 47.6914 110.549 47.8877 111.205 48.2803C111.867 48.6729 112.38 49.2412 112.743 49.9854C113.112 50.7236 113.297 51.6172 113.297 52.666ZM105.967 52.666C105.967 53.4395 106.069 54.1104 106.274 54.6787C106.479 55.2471 106.796 55.6865 107.224 55.9971C107.651 56.3076 108.202 56.4629 108.876 56.4629C109.544 56.4629 110.092 56.3076 110.52 55.9971C110.953 55.6865 111.272 55.2471 111.478 54.6787C111.683 54.1104 111.785 53.4395 111.785 52.666C111.785 51.8984 111.683 51.2363 111.478 50.6797C111.272 50.1172 110.956 49.6836 110.528 49.3789C110.101 49.0742 109.547 48.9219 108.867 48.9219C107.865 48.9219 107.13 49.2529 106.661 49.915C106.198 50.5771 105.967 51.4941 105.967 52.666ZM122.385 49.1064H119.212V57.5H117.771V49.1064H114.642V47.8672H122.385V49.1064ZM129.908 47.8672H131.517L127.359 52.5166L131.851 57.5H130.137L125.76 52.6133V57.5H124.292V47.8672H125.76V52.543L129.908 47.8672ZM134.979 47.8672V53.9229C134.979 54.04 134.977 54.1924 134.971 54.3799C134.965 54.5615 134.956 54.7578 134.944 54.9688C134.933 55.1738 134.921 55.373 134.909 55.5664C134.903 55.7539 134.895 55.9092 134.883 56.0322L140.139 47.8672H141.932V57.5H140.569V51.5938C140.569 51.4062 140.572 51.166 140.578 50.873C140.584 50.5801 140.593 50.293 140.604 50.0117C140.616 49.7246 140.625 49.502 140.631 49.3438L135.393 57.5H133.591V47.8672H134.979ZM146.353 53.9316H145.395L144.99 44.6504H146.757L146.353 53.9316ZM144.814 56.5859C144.814 56.1758 144.914 55.8857 145.113 55.7158C145.312 55.54 145.562 55.4521 145.86 55.4521C146.153 55.4521 146.399 55.54 146.599 55.7158C146.804 55.8857 146.906 56.1758 146.906 56.5859C146.906 56.9902 146.804 57.2861 146.599 57.4736C146.399 57.6553 146.153 57.7461 145.86 57.7461C145.562 57.7461 145.312 57.6553 145.113 57.4736C144.914 57.2861 144.814 56.9902 144.814 56.5859ZM43.7578 69.6504H47.3965C49.002 69.6504 50.209 69.8906 51.0176 70.3711C51.8262 70.8516 52.2305 71.6689 52.2305 72.8232C52.2305 73.3213 52.1338 73.7695 51.9404 74.168C51.7529 74.5605 51.4775 74.8857 51.1143 75.1436C50.751 75.4014 50.3027 75.5801 49.7695 75.6797V75.7676C50.332 75.8555 50.8301 76.0166 51.2637 76.251C51.6973 76.4854 52.0371 76.8135 52.2832 77.2354C52.5293 77.6572 52.6523 78.1934 52.6523 78.8438C52.6523 79.6348 52.4678 80.3027 52.0986 80.8477C51.7354 81.3926 51.2197 81.8057 50.5518 82.0869C49.8838 82.3623 49.0928 82.5 48.1787 82.5H43.7578V69.6504ZM45.252 75.1611H47.7129C48.832 75.1611 49.6055 74.9766 50.0332 74.6074C50.4668 74.2383 50.6836 73.6992 50.6836 72.9902C50.6836 72.2578 50.4258 71.7305 49.9102 71.4082C49.4004 71.0859 48.5859 70.9248 47.4668 70.9248H45.252V75.1611ZM45.252 76.418V81.2256H47.9238C49.0664 81.2256 49.875 81.0029 50.3496 80.5576C50.8242 80.1064 51.0615 79.5 51.0615 78.7383C51.0615 78.252 50.9531 77.8359 50.7363 77.4902C50.5254 77.1445 50.1797 76.8809 49.6992 76.6992C49.2246 76.5117 48.5889 76.418 47.792 76.418H45.252ZM55.1748 82.5V72.8672H56.6426V76.8398H59.2793C60.0996 76.8398 60.7734 76.9424 61.3008 77.1475C61.834 77.3525 62.2295 77.6572 62.4873 78.0615C62.7451 78.4658 62.874 78.9668 62.874 79.5645C62.874 80.1621 62.7451 80.6807 62.4873 81.1201C62.2354 81.5596 61.8369 81.8994 61.292 82.1396C60.7529 82.3799 60.0498 82.5 59.1826 82.5H55.1748ZM56.6426 81.3135H59.042C59.7686 81.3135 60.3486 81.1846 60.7822 80.9268C61.2158 80.6689 61.4326 80.2383 61.4326 79.6348C61.4326 79.043 61.2305 78.6328 60.8262 78.4043C60.4219 78.1699 59.8418 78.0527 59.0859 78.0527H56.6426V81.3135ZM64.4648 82.5V72.8672H65.9238V82.5H64.4648ZM68.5078 76.7168C68.5078 75.3457 68.6396 74.1768 68.9033 73.21C69.167 72.2373 69.5742 71.458 70.125 70.8721C70.6816 70.2803 71.3965 69.876 72.2695 69.6592C73.0195 69.4541 73.7812 69.2783 74.5547 69.1318C75.3281 68.9795 76.0811 68.8477 76.8135 68.7363L77.0684 70.0195C76.6992 70.0723 76.3125 70.1338 75.9082 70.2041C75.5039 70.2686 75.0996 70.3389 74.6953 70.415C74.291 70.4854 73.9102 70.5615 73.5527 70.6436C73.1953 70.7197 72.8789 70.7988 72.6035 70.8809C72.1055 71.0156 71.6748 71.25 71.3115 71.584C70.9541 71.918 70.6699 72.3779 70.459 72.9639C70.2539 73.5498 70.1309 74.2881 70.0898 75.1787H70.1953C70.3711 74.9209 70.6113 74.666 70.916 74.4141C71.2207 74.1621 71.584 73.9541 72.0059 73.79C72.4277 73.6201 72.9023 73.5352 73.4297 73.5352C74.2617 73.5352 74.9561 73.7168 75.5127 74.0801C76.0693 74.4375 76.4883 74.9414 76.7695 75.5918C77.0508 76.2422 77.1914 77.0039 77.1914 77.877C77.1914 78.9258 77.0098 79.8076 76.6465 80.5225C76.2891 81.2373 75.7852 81.7764 75.1348 82.1396C74.4844 82.4971 73.7197 82.6758 72.8408 82.6758C72.1611 82.6758 71.5518 82.5439 71.0127 82.2803C70.4795 82.0166 70.0254 81.6299 69.6504 81.1201C69.2812 80.6104 68.9971 79.9863 68.7979 79.248C68.6045 78.5098 68.5078 77.666 68.5078 76.7168ZM72.9551 81.4629C73.5117 81.4629 73.9893 81.3457 74.3877 81.1113C74.792 80.877 75.1025 80.5078 75.3193 80.0039C75.542 79.4941 75.6533 78.832 75.6533 78.0176C75.6533 76.998 75.457 76.2012 75.0645 75.627C74.6777 75.0469 74.0566 74.7568 73.2012 74.7568C72.668 74.7568 72.1846 74.8711 71.751 75.0996C71.3174 75.3223 70.9512 75.5889 70.6523 75.8994C70.3535 76.21 70.1367 76.4883 70.002 76.7344C70.002 77.332 70.0459 77.9121 70.1338 78.4746C70.2217 79.0371 70.374 79.5439 70.5908 79.9951C70.8076 80.4463 71.1064 80.8037 71.4873 81.0674C71.874 81.3311 72.3633 81.4629 72.9551 81.4629ZM83.4229 72.6914C84.2432 72.6914 84.9463 72.873 85.5322 73.2363C86.1182 73.5996 86.5664 74.1094 86.877 74.7656C87.1875 75.416 87.3428 76.1777 87.3428 77.0508V77.9561H80.6895C80.707 79.0869 80.9883 79.9482 81.5332 80.54C82.0781 81.1318 82.8457 81.4277 83.8359 81.4277C84.4453 81.4277 84.9844 81.3721 85.4531 81.2607C85.9219 81.1494 86.4082 80.9854 86.9121 80.7686V82.0518C86.4258 82.2686 85.9424 82.4268 85.4619 82.5264C84.9873 82.626 84.4248 82.6758 83.7744 82.6758C82.8486 82.6758 82.04 82.4883 81.3486 82.1133C80.6631 81.7324 80.1299 81.1758 79.749 80.4434C79.3682 79.7109 79.1777 78.8145 79.1777 77.7539C79.1777 76.7168 79.3506 75.8203 79.6963 75.0645C80.0479 74.3027 80.54 73.7168 81.1729 73.3066C81.8115 72.8965 82.5615 72.6914 83.4229 72.6914ZM83.4053 73.8867C82.626 73.8867 82.0049 74.1416 81.542 74.6514C81.0791 75.1611 80.8037 75.873 80.7158 76.7871H85.8135C85.8076 76.2129 85.7168 75.709 85.541 75.2754C85.3711 74.8359 85.1104 74.4961 84.7588 74.2559C84.4072 74.0098 83.9561 73.8867 83.4053 73.8867ZM94.3477 72.6914C95.5488 72.6914 96.5068 73.1045 97.2217 73.9307C97.9365 74.7568 98.2939 75.999 98.2939 77.6572C98.2939 78.7529 98.1299 79.6729 97.8018 80.417C97.4736 81.1611 97.0107 81.7236 96.4131 82.1045C95.8213 82.4854 95.1211 82.6758 94.3125 82.6758C93.8027 82.6758 93.3545 82.6084 92.9678 82.4736C92.5811 82.3389 92.25 82.1572 91.9746 81.9287C91.6992 81.7002 91.4707 81.4512 91.2891 81.1816H91.1836C91.2012 81.4102 91.2217 81.6855 91.2451 82.0078C91.2744 82.3301 91.2891 82.6113 91.2891 82.8516V86.8066H89.8213V72.8672H91.0254L91.2188 74.291H91.2891C91.4766 73.998 91.7051 73.7314 91.9746 73.4912C92.2441 73.2451 92.5723 73.0518 92.959 72.9111C93.3516 72.7646 93.8145 72.6914 94.3477 72.6914ZM94.0928 73.9219C93.4248 73.9219 92.8857 74.0508 92.4756 74.3086C92.0713 74.5664 91.7754 74.9531 91.5879 75.4688C91.4004 75.9785 91.3008 76.6201 91.2891 77.3936V77.6748C91.2891 78.4893 91.377 79.1777 91.5527 79.7402C91.7344 80.3027 92.0303 80.7305 92.4404 81.0234C92.8564 81.3164 93.4131 81.4629 94.1104 81.4629C94.708 81.4629 95.2061 81.3018 95.6045 80.9795C96.0029 80.6572 96.2988 80.209 96.4922 79.6348C96.6914 79.0547 96.791 78.3896 96.791 77.6396C96.791 76.5029 96.5684 75.6006 96.123 74.9326C95.6836 74.2588 95.0068 73.9219 94.0928 73.9219ZM102.231 72.8672V78.9229C102.231 79.04 102.229 79.1924 102.223 79.3799C102.217 79.5615 102.208 79.7578 102.196 79.9688C102.185 80.1738 102.173 80.373 102.161 80.5664C102.155 80.7539 102.146 80.9092 102.135 81.0322L107.391 72.8672H109.184V82.5H107.821V76.5938C107.821 76.4062 107.824 76.166 107.83 75.873C107.836 75.5801 107.845 75.293 107.856 75.0117C107.868 74.7246 107.877 74.502 107.883 74.3438L102.645 82.5H100.843V72.8672H102.231ZM124.02 72.8672V81.2607H125.399V85.8311H123.984V82.5H117.164V85.8311H115.767V81.2607H116.522C117.073 80.499 117.53 79.6641 117.894 78.7559C118.257 77.8477 118.532 76.8955 118.72 75.8994C118.907 74.8975 119.007 73.8867 119.019 72.8672H124.02ZM122.604 74.0273H120.319C120.267 74.8828 120.141 75.7529 119.941 76.6377C119.748 77.5225 119.49 78.3662 119.168 79.1689C118.846 79.9658 118.471 80.6631 118.043 81.2607H122.604V74.0273ZM131.842 72.6914C133.043 72.6914 134.001 73.1045 134.716 73.9307C135.431 74.7568 135.788 75.999 135.788 77.6572C135.788 78.7529 135.624 79.6729 135.296 80.417C134.968 81.1611 134.505 81.7236 133.907 82.1045C133.315 82.4854 132.615 82.6758 131.807 82.6758C131.297 82.6758 130.849 82.6084 130.462 82.4736C130.075 82.3389 129.744 82.1572 129.469 81.9287C129.193 81.7002 128.965 81.4512 128.783 81.1816H128.678C128.695 81.4102 128.716 81.6855 128.739 82.0078C128.769 82.3301 128.783 82.6113 128.783 82.8516V86.8066H127.315V72.8672H128.52L128.713 74.291H128.783C128.971 73.998 129.199 73.7314 129.469 73.4912C129.738 73.2451 130.066 73.0518 130.453 72.9111C130.846 72.7646 131.309 72.6914 131.842 72.6914ZM131.587 73.9219C130.919 73.9219 130.38 74.0508 129.97 74.3086C129.565 74.5664 129.27 74.9531 129.082 75.4688C128.895 75.9785 128.795 76.6201 128.783 77.3936V77.6748C128.783 78.4893 128.871 79.1777 129.047 79.7402C129.229 80.3027 129.524 80.7305 129.935 81.0234C130.351 81.3164 130.907 81.4629 131.604 81.4629C132.202 81.4629 132.7 81.3018 133.099 80.9795C133.497 80.6572 133.793 80.209 133.986 79.6348C134.186 79.0547 134.285 78.3896 134.285 77.6396C134.285 76.5029 134.062 75.6006 133.617 74.9326C133.178 74.2588 132.501 73.9219 131.587 73.9219ZM136.816 72.8672H138.381L140.508 78.457C140.631 78.7852 140.745 79.1016 140.851 79.4062C140.956 79.7051 141.05 79.9922 141.132 80.2676C141.214 80.543 141.278 80.8096 141.325 81.0674H141.387C141.469 80.7744 141.586 80.3906 141.738 79.916C141.891 79.4355 142.055 78.9463 142.23 78.4482L144.243 72.8672H145.816L141.624 83.915C141.401 84.5068 141.141 85.0225 140.842 85.4619C140.549 85.9014 140.191 86.2383 139.77 86.4727C139.348 86.7129 138.838 86.833 138.24 86.833C137.965 86.833 137.722 86.8154 137.511 86.7803C137.3 86.751 137.118 86.7158 136.966 86.6748V85.5059C137.095 85.5352 137.25 85.5615 137.432 85.585C137.619 85.6084 137.812 85.6201 138.012 85.6201C138.375 85.6201 138.688 85.5498 138.952 85.4092C139.222 85.2744 139.453 85.0752 139.646 84.8115C139.84 84.5479 140.007 84.2344 140.147 83.8711L140.675 82.5176L136.816 72.8672ZM153.199 72.8672V74.1064H148.822V82.5H147.354V72.8672H153.199ZM153.604 72.8672H155.168L157.295 78.457C157.418 78.7852 157.532 79.1016 157.638 79.4062C157.743 79.7051 157.837 79.9922 157.919 80.2676C158.001 80.543 158.065 80.8096 158.112 81.0674H158.174C158.256 80.7744 158.373 80.3906 158.525 79.916C158.678 79.4355 158.842 78.9463 159.018 78.4482L161.03 72.8672H162.604L158.411 83.915C158.188 84.5068 157.928 85.0225 157.629 85.4619C157.336 85.9014 156.979 86.2383 156.557 86.4727C156.135 86.7129 155.625 86.833 155.027 86.833C154.752 86.833 154.509 86.8154 154.298 86.7803C154.087 86.751 153.905 86.7158 153.753 86.6748V85.5059C153.882 85.5352 154.037 85.5615 154.219 85.585C154.406 85.6084 154.6 85.6201 154.799 85.6201C155.162 85.6201 155.476 85.5498 155.739 85.4092C156.009 85.2744 156.24 85.0752 156.434 84.8115C156.627 84.5479 156.794 84.2344 156.935 83.8711L157.462 82.5176L153.604 72.8672ZM176.525 77.666C176.525 78.7148 176.355 79.6143 176.016 80.3643C175.682 81.1143 175.201 81.6885 174.574 82.0869C173.947 82.4795 173.197 82.6758 172.324 82.6758C171.51 82.6758 170.798 82.5 170.188 82.1484C169.585 81.7969 169.107 81.2842 168.756 80.6104C168.41 79.9365 168.211 79.1162 168.158 78.1494H165.601V82.5H164.142V72.8672H165.601V76.9102H168.176C168.258 76.0195 168.475 75.2607 168.826 74.6338C169.178 74.0068 169.652 73.5264 170.25 73.1924C170.848 72.8584 171.551 72.6914 172.359 72.6914C173.203 72.6914 173.936 72.8906 174.557 73.2891C175.184 73.6816 175.667 74.25 176.007 74.9941C176.353 75.7324 176.525 76.623 176.525 77.666ZM169.652 77.666C169.652 78.4746 169.743 79.1631 169.925 79.7314C170.112 80.2939 170.402 80.7246 170.795 81.0234C171.193 81.3164 171.709 81.4629 172.342 81.4629C172.969 81.4629 173.479 81.3164 173.871 81.0234C174.27 80.7305 174.56 80.3027 174.741 79.7402C174.929 79.1719 175.022 78.4805 175.022 77.666C175.022 76.8633 174.929 76.1836 174.741 75.627C174.554 75.0703 174.264 74.6484 173.871 74.3613C173.479 74.0684 172.969 73.9219 172.342 73.9219C171.715 73.9219 171.202 74.0684 170.804 74.3613C170.411 74.6484 170.121 75.0703 169.934 75.627C169.746 76.1836 169.652 76.8633 169.652 77.666ZM180.384 78.9316H179.426L179.021 69.6504H180.788L180.384 78.9316ZM178.846 81.5859C178.846 81.1758 178.945 80.8857 179.145 80.7158C179.344 80.54 179.593 80.4521 179.892 80.4521C180.185 80.4521 180.431 80.54 180.63 80.7158C180.835 80.8857 180.938 81.1758 180.938 81.5859C180.938 81.9902 180.835 82.2861 180.63 82.4736C180.431 82.6553 180.185 82.7461 179.892 82.7461C179.593 82.7461 179.344 82.6553 179.145 82.4736C178.945 82.2861 178.846 81.9902 178.846 81.5859Z" fill="black"/>
</svg>
