<svg width="378" height="102" viewBox="0 0 378 102" fill="none" xmlns="http://www.w3.org/2000/svg">
<path d="M27.3114 16C27.3114 7.71574 34.0271 1 42.3114 1H50.4032H103.718H361.637C369.921 1 376.637 7.71573 376.637 16V85.9219C376.637 94.2061 369.921 100.922 361.637 100.922H41.8221C33.7191 100.922 27.0809 94.4867 26.8293 86.3876L26.6836 81.6971C26.4684 74.7694 22.0574 68.7603 15.8312 65.898C11.5565 63.9328 6.92722 61.5319 3.95073 59.2165C2.43963 58.041 1.49459 56.992 1.14567 56.1411C0.982607 55.7435 0.971219 55.4417 1.03961 55.1975C1.10892 54.9502 1.29438 54.6403 1.74633 54.2924C2.93289 53.3791 5.21194 52.1056 8.0023 50.7026C10.7678 49.3121 13.9606 47.8308 16.921 46.502C23.1663 43.6985 27.3114 37.5366 27.3114 30.6614V16Z" fill="white" stroke="#231F20" stroke-width="2"/>
<path d="M54.9023 26.0576C54.9023 27.0479 54.7764 27.9502 54.5244 28.7646C54.2725 29.5732 53.8975 30.2705 53.3994 30.8564C52.9072 31.4365 52.2949 31.8848 51.5625 32.2012C50.8301 32.5176 49.9805 32.6758 49.0137 32.6758C48.0176 32.6758 47.1475 32.5176 46.4033 32.2012C45.665 31.8848 45.0498 31.4336 44.5576 30.8477C44.0713 30.2617 43.7051 29.5615 43.459 28.7471C43.2188 27.9326 43.0986 27.0303 43.0986 26.04C43.0986 24.7275 43.3154 23.5762 43.749 22.5859C44.1826 21.5957 44.8389 20.8252 45.7178 20.2744C46.6025 19.7236 47.71 19.4482 49.04 19.4482C50.3115 19.4482 51.3809 19.7207 52.248 20.2656C53.1211 20.8105 53.7803 21.5781 54.2256 22.5684C54.6768 23.5527 54.9023 24.7158 54.9023 26.0576ZM44.6719 26.0576C44.6719 27.1475 44.8271 28.0908 45.1377 28.8877C45.4482 29.6846 45.9229 30.2998 46.5615 30.7334C47.2061 31.167 48.0234 31.3838 49.0137 31.3838C50.0098 31.3838 50.8242 31.167 51.457 30.7334C52.0957 30.2998 52.5674 29.6846 52.8721 28.8877C53.1768 28.0908 53.3291 27.1475 53.3291 26.0576C53.3291 24.3994 52.9805 23.1045 52.2832 22.1729C51.5918 21.2354 50.5107 20.7666 49.04 20.7666C48.0439 20.7666 47.2236 20.9805 46.5791 21.4082C45.9346 21.8359 45.4541 22.4453 45.1377 23.2363C44.8271 24.0215 44.6719 24.9619 44.6719 26.0576ZM58.9365 22.8672V28.9229C58.9365 29.04 58.9336 29.1924 58.9277 29.3799C58.9219 29.5615 58.9131 29.7578 58.9014 29.9688C58.8896 30.1738 58.8779 30.373 58.8662 30.5664C58.8604 30.7539 58.8516 30.9092 58.8398 31.0322L64.0957 22.8672H65.8887V32.5H64.5264V26.5938C64.5264 26.4062 64.5293 26.166 64.5352 25.873C64.541 25.5801 64.5498 25.293 64.5615 25.0117C64.5732 24.7246 64.582 24.502 64.5879 24.3438L59.3496 32.5H57.5479V22.8672H58.9365ZM65.168 18.9033C65.1152 19.4951 64.9658 19.9902 64.7197 20.3887C64.4795 20.7871 64.125 21.0889 63.6562 21.2939C63.1875 21.4932 62.5869 21.5928 61.8545 21.5928C61.0986 21.5928 60.4893 21.4961 60.0264 21.3027C59.5693 21.1035 59.2295 20.8047 59.0068 20.4062C58.79 20.0078 58.6611 19.5068 58.6201 18.9033H59.9912C60.0557 19.5479 60.2285 19.9873 60.5098 20.2217C60.791 20.4561 61.248 20.5732 61.8809 20.5732C62.4434 20.5732 62.8857 20.4502 63.208 20.2041C63.5303 19.958 63.7236 19.5244 63.7881 18.9033H65.168ZM68.1738 28.3164V27.0156H72.5332V28.3164H68.1738ZM83.0977 27.666C83.0977 28.457 82.9951 29.1631 82.79 29.7842C82.585 30.4053 82.2891 30.9297 81.9023 31.3574C81.5156 31.7852 81.0469 32.1133 80.4961 32.3418C79.9512 32.5645 79.333 32.6758 78.6416 32.6758C77.9971 32.6758 77.4053 32.5645 76.8662 32.3418C76.333 32.1133 75.8701 31.7852 75.4775 31.3574C75.0908 30.9297 74.7891 30.4053 74.5723 29.7842C74.3613 29.1631 74.2559 28.457 74.2559 27.666C74.2559 26.6113 74.4346 25.7148 74.792 24.9766C75.1494 24.2324 75.6592 23.667 76.3213 23.2803C76.9893 22.8877 77.7832 22.6914 78.7031 22.6914C79.582 22.6914 80.3496 22.8877 81.0059 23.2803C81.668 23.6729 82.1807 24.2412 82.5439 24.9854C82.9131 25.7236 83.0977 26.6172 83.0977 27.666ZM75.7676 27.666C75.7676 28.4395 75.8701 29.1104 76.0752 29.6787C76.2803 30.2471 76.5967 30.6865 77.0244 30.9971C77.4521 31.3076 78.0029 31.4629 78.6768 31.4629C79.3447 31.4629 79.8926 31.3076 80.3203 30.9971C80.7539 30.6865 81.0732 30.2471 81.2783 29.6787C81.4834 29.1104 81.5859 28.4395 81.5859 27.666C81.5859 26.8984 81.4834 26.2363 81.2783 25.6797C81.0732 25.1172 80.7568 24.6836 80.3291 24.3789C79.9014 24.0742 79.3477 23.9219 78.668 23.9219C77.666 23.9219 76.9307 24.2529 76.4619 24.915C75.999 25.5771 75.7676 26.4941 75.7676 27.666ZM87.0088 22.8672V28.9229C87.0088 29.04 87.0059 29.1924 87 29.3799C86.9941 29.5615 86.9854 29.7578 86.9736 29.9688C86.9619 30.1738 86.9502 30.373 86.9385 30.5664C86.9326 30.7539 86.9238 30.9092 86.9121 31.0322L92.168 22.8672H93.9609V32.5H92.5986V26.5938C92.5986 26.4062 92.6016 26.166 92.6074 25.873C92.6133 25.5801 92.6221 25.293 92.6338 25.0117C92.6455 24.7246 92.6543 24.502 92.6602 24.3438L87.4219 32.5H85.6201V22.8672H87.0088ZM93.2402 18.9033C93.1875 19.4951 93.0381 19.9902 92.792 20.3887C92.5518 20.7871 92.1973 21.0889 91.7285 21.2939C91.2598 21.4932 90.6592 21.5928 89.9268 21.5928C89.1709 21.5928 88.5615 21.4961 88.0986 21.3027C87.6416 21.1035 87.3018 20.8047 87.0791 20.4062C86.8623 20.0078 86.7334 19.5068 86.6924 18.9033H88.0635C88.1279 19.5479 88.3008 19.9873 88.582 20.2217C88.8633 20.4561 89.3203 20.5732 89.9531 20.5732C90.5156 20.5732 90.958 20.4502 91.2803 20.2041C91.6025 19.958 91.7959 19.5244 91.8604 18.9033H93.2402ZM98.3818 28.9316H97.4238L97.0195 19.6504H98.7861L98.3818 28.9316ZM96.8438 31.5859C96.8438 31.1758 96.9434 30.8857 97.1426 30.7158C97.3418 30.54 97.5908 30.4521 97.8896 30.4521C98.1826 30.4521 98.4287 30.54 98.6279 30.7158C98.833 30.8857 98.9355 31.1758 98.9355 31.5859C98.9355 31.9902 98.833 32.2861 98.6279 32.4736C98.4287 32.6553 98.1826 32.7461 97.8896 32.7461C97.5908 32.7461 97.3418 32.6553 97.1426 32.4736C96.9434 32.2861 96.8438 31.9902 96.8438 31.5859ZM109.131 20.7842C108.539 20.7842 107.991 20.8516 107.487 20.9863C106.989 21.1211 106.538 21.2822 106.134 21.4697L105.519 20.2129C106.017 19.9727 106.579 19.7881 107.206 19.6592C107.833 19.5303 108.48 19.4658 109.148 19.4658C110.174 19.4658 111.064 19.624 111.82 19.9404C112.582 20.251 113.212 20.6934 113.71 21.2676C114.208 21.8418 114.58 22.5186 114.826 23.2979C115.072 24.0771 115.195 24.9326 115.195 25.8643C115.195 27.2529 114.967 28.457 114.51 29.4766C114.053 30.4961 113.364 31.2842 112.444 31.8408C111.53 32.3975 110.385 32.6758 109.008 32.6758C108.264 32.6758 107.631 32.6318 107.109 32.5439C106.594 32.4619 106.09 32.333 105.598 32.1572V30.8564C106.096 30.9912 106.603 31.1113 107.118 31.2168C107.64 31.3164 108.193 31.3662 108.779 31.3662C109.564 31.3662 110.253 31.2578 110.845 31.041C111.442 30.8242 111.943 30.5049 112.348 30.083C112.752 29.6611 113.06 29.1455 113.271 28.5361C113.487 27.9268 113.604 27.2295 113.622 26.4443H107.268V25.126H113.604C113.552 24.4463 113.411 23.8398 113.183 23.3066C112.954 22.7676 112.646 22.3105 112.26 21.9355C111.873 21.5605 111.416 21.2764 110.889 21.083C110.367 20.8838 109.781 20.7842 109.131 20.7842ZM124.424 24.1064H121.251V32.5H119.81V24.1064H116.681V22.8672H124.424V24.1064ZM129.935 22.709C131.083 22.709 131.936 22.9668 132.492 23.4824C133.049 23.998 133.327 24.8213 133.327 25.9521V32.5H132.264L131.982 31.0762H131.912C131.643 31.4277 131.361 31.7236 131.068 31.9639C130.775 32.1982 130.436 32.377 130.049 32.5C129.668 32.6172 129.199 32.6758 128.643 32.6758C128.057 32.6758 127.535 32.5732 127.078 32.3682C126.627 32.1631 126.27 31.8525 126.006 31.4365C125.748 31.0205 125.619 30.4932 125.619 29.8545C125.619 28.8936 126 28.1553 126.762 27.6396C127.523 27.124 128.684 26.8428 130.242 26.7959L131.903 26.7256V26.1367C131.903 25.3047 131.725 24.7217 131.367 24.3877C131.01 24.0537 130.506 23.8867 129.855 23.8867C129.352 23.8867 128.871 23.96 128.414 24.1064C127.957 24.2529 127.523 24.4258 127.113 24.625L126.665 23.5176C127.099 23.2949 127.597 23.1045 128.159 22.9463C128.722 22.7881 129.313 22.709 129.935 22.709ZM131.886 27.7539L130.418 27.8154C129.217 27.8623 128.37 28.0586 127.878 28.4043C127.386 28.75 127.14 29.2393 127.14 29.8721C127.14 30.4229 127.307 30.8301 127.641 31.0938C127.975 31.3574 128.417 31.4893 128.968 31.4893C129.823 31.4893 130.523 31.252 131.068 30.7773C131.613 30.3027 131.886 29.5908 131.886 28.6416V27.7539ZM148.233 32.5H146.748V24.0889H143.821C143.704 25.6064 143.555 26.9072 143.373 27.9912C143.197 29.0693 142.975 29.9512 142.705 30.6367C142.441 31.3164 142.119 31.8174 141.738 32.1396C141.363 32.4561 140.915 32.6143 140.394 32.6143C140.235 32.6143 140.086 32.6055 139.945 32.5879C139.805 32.5703 139.685 32.541 139.585 32.5V31.3926C139.661 31.416 139.74 31.4336 139.822 31.4453C139.91 31.457 140.001 31.4629 140.095 31.4629C140.358 31.4629 140.599 31.3545 140.815 31.1377C141.038 30.915 141.237 30.5811 141.413 30.1357C141.595 29.6904 141.756 29.1279 141.896 28.4482C142.037 27.7627 142.16 26.957 142.266 26.0312C142.377 25.0996 142.474 24.0449 142.556 22.8672H148.233V32.5ZM159.615 27.666C159.615 28.457 159.513 29.1631 159.308 29.7842C159.103 30.4053 158.807 30.9297 158.42 31.3574C158.033 31.7852 157.564 32.1133 157.014 32.3418C156.469 32.5645 155.851 32.6758 155.159 32.6758C154.515 32.6758 153.923 32.5645 153.384 32.3418C152.851 32.1133 152.388 31.7852 151.995 31.3574C151.608 30.9297 151.307 30.4053 151.09 29.7842C150.879 29.1631 150.773 28.457 150.773 27.666C150.773 26.6113 150.952 25.7148 151.31 24.9766C151.667 24.2324 152.177 23.667 152.839 23.2803C153.507 22.8877 154.301 22.6914 155.221 22.6914C156.1 22.6914 156.867 22.8877 157.523 23.2803C158.186 23.6729 158.698 24.2412 159.062 24.9854C159.431 25.7236 159.615 26.6172 159.615 27.666ZM152.285 27.666C152.285 28.4395 152.388 29.1104 152.593 29.6787C152.798 30.2471 153.114 30.6865 153.542 30.9971C153.97 31.3076 154.521 31.4629 155.194 31.4629C155.862 31.4629 156.41 31.3076 156.838 30.9971C157.271 30.6865 157.591 30.2471 157.796 29.6787C158.001 29.1104 158.104 28.4395 158.104 27.666C158.104 26.8984 158.001 26.2363 157.796 25.6797C157.591 25.1172 157.274 24.6836 156.847 24.3789C156.419 24.0742 155.865 23.9219 155.186 23.9219C154.184 23.9219 153.448 24.2529 152.979 24.915C152.517 25.5771 152.285 26.4941 152.285 27.666ZM167.754 22.8672H169.362L165.205 27.5166L169.696 32.5H167.982L163.605 27.6133V32.5H162.138V22.8672H163.605V27.543L167.754 22.8672ZM175.04 22.709C176.188 22.709 177.041 22.9668 177.598 23.4824C178.154 23.998 178.433 24.8213 178.433 25.9521V32.5H177.369L177.088 31.0762H177.018C176.748 31.4277 176.467 31.7236 176.174 31.9639C175.881 32.1982 175.541 32.377 175.154 32.5C174.773 32.6172 174.305 32.6758 173.748 32.6758C173.162 32.6758 172.641 32.5732 172.184 32.3682C171.732 32.1631 171.375 31.8525 171.111 31.4365C170.854 31.0205 170.725 30.4932 170.725 29.8545C170.725 28.8936 171.105 28.1553 171.867 27.6396C172.629 27.124 173.789 26.8428 175.348 26.7959L177.009 26.7256V26.1367C177.009 25.3047 176.83 24.7217 176.473 24.3877C176.115 24.0537 175.611 23.8867 174.961 23.8867C174.457 23.8867 173.977 23.96 173.52 24.1064C173.062 24.2529 172.629 24.4258 172.219 24.625L171.771 23.5176C172.204 23.2949 172.702 23.1045 173.265 22.9463C173.827 22.7881 174.419 22.709 175.04 22.709ZM176.991 27.7539L175.523 27.8154C174.322 27.8623 173.476 28.0586 172.983 28.4043C172.491 28.75 172.245 29.2393 172.245 29.8721C172.245 30.4229 172.412 30.8301 172.746 31.0938C173.08 31.3574 173.522 31.4893 174.073 31.4893C174.929 31.4893 175.629 31.252 176.174 30.7773C176.719 30.3027 176.991 29.5908 176.991 28.6416V27.7539ZM190.816 35.8311H189.393V32.5H181.438V22.8672H182.906V31.2607H188.013V22.8672H189.472V31.2783H190.816V35.8311ZM194.095 22.8672V28.9229C194.095 29.04 194.092 29.1924 194.086 29.3799C194.08 29.5615 194.071 29.7578 194.06 29.9688C194.048 30.1738 194.036 30.373 194.024 30.5664C194.019 30.7539 194.01 30.9092 193.998 31.0322L199.254 22.8672H201.047V32.5H199.685V26.5938C199.685 26.4062 199.688 26.166 199.693 25.873C199.699 25.5801 199.708 25.293 199.72 25.0117C199.731 24.7246 199.74 24.502 199.746 24.3438L194.508 32.5H192.706V22.8672H194.095ZM204.615 32.5H202.91L205.688 28.4395C205.283 28.3516 204.908 28.2021 204.562 27.9912C204.217 27.7744 203.936 27.4785 203.719 27.1035C203.508 26.7285 203.402 26.2627 203.402 25.7061C203.402 24.7803 203.71 24.0771 204.325 23.5967C204.946 23.1104 205.764 22.8672 206.777 22.8672H211.04V32.5H209.581V28.6328H207.138L204.615 32.5ZM204.817 25.7148C204.817 26.2891 205.022 26.7168 205.433 26.998C205.843 27.2734 206.429 27.4111 207.19 27.4111H209.581V24.0889H206.936C206.186 24.0889 205.644 24.2412 205.31 24.5459C204.981 24.8447 204.817 25.2344 204.817 25.7148ZM222.501 22.6914C223.321 22.6914 224.024 22.873 224.61 23.2363C225.196 23.5996 225.645 24.1094 225.955 24.7656C226.266 25.416 226.421 26.1777 226.421 27.0508V27.9561H219.768C219.785 29.0869 220.066 29.9482 220.611 30.54C221.156 31.1318 221.924 31.4277 222.914 31.4277C223.523 31.4277 224.062 31.3721 224.531 31.2607C225 31.1494 225.486 30.9854 225.99 30.7686V32.0518C225.504 32.2686 225.021 32.4268 224.54 32.5264C224.065 32.626 223.503 32.6758 222.853 32.6758C221.927 32.6758 221.118 32.4883 220.427 32.1133C219.741 31.7324 219.208 31.1758 218.827 30.4434C218.446 29.7109 218.256 28.8145 218.256 27.7539C218.256 26.7168 218.429 25.8203 218.774 25.0645C219.126 24.3027 219.618 23.7168 220.251 23.3066C220.89 22.8965 221.64 22.6914 222.501 22.6914ZM222.483 23.8867C221.704 23.8867 221.083 24.1416 220.62 24.6514C220.157 25.1611 219.882 25.873 219.794 26.7871H224.892C224.886 26.2129 224.795 25.709 224.619 25.2754C224.449 24.8359 224.188 24.4961 223.837 24.2559C223.485 24.0098 223.034 23.8867 222.483 23.8867ZM241.811 22.8672V31.2783H243.19V35.8135H241.723V32.5H228.899V22.8672H230.358V31.2607H234.621V22.8672H236.089V31.2607H240.36V22.8672H241.811ZM248.763 22.6914C249.583 22.6914 250.286 22.873 250.872 23.2363C251.458 23.5996 251.906 24.1094 252.217 24.7656C252.527 25.416 252.683 26.1777 252.683 27.0508V27.9561H246.029C246.047 29.0869 246.328 29.9482 246.873 30.54C247.418 31.1318 248.186 31.4277 249.176 31.4277C249.785 31.4277 250.324 31.3721 250.793 31.2607C251.262 31.1494 251.748 30.9854 252.252 30.7686V32.0518C251.766 32.2686 251.282 32.4268 250.802 32.5264C250.327 32.626 249.765 32.6758 249.114 32.6758C248.188 32.6758 247.38 32.4883 246.688 32.1133C246.003 31.7324 245.47 31.1758 245.089 30.4434C244.708 29.7109 244.518 28.8145 244.518 27.7539C244.518 26.7168 244.69 25.8203 245.036 25.0645C245.388 24.3027 245.88 23.7168 246.513 23.3066C247.151 22.8965 247.901 22.6914 248.763 22.6914ZM248.745 23.8867C247.966 23.8867 247.345 24.1416 246.882 24.6514C246.419 25.1611 246.144 25.873 246.056 26.7871H251.153C251.147 26.2129 251.057 25.709 250.881 25.2754C250.711 24.8359 250.45 24.4961 250.099 24.2559C249.747 24.0098 249.296 23.8867 248.745 23.8867ZM262.315 22.6914C263.036 22.6914 263.66 22.791 264.188 22.9902C264.715 23.1836 265.122 23.4678 265.409 23.8428C265.696 24.2178 265.84 24.6748 265.84 25.2139C265.84 25.7939 265.682 26.2568 265.365 26.6025C265.049 26.9482 264.612 27.1973 264.056 27.3496V27.4199C264.448 27.5254 264.803 27.6777 265.119 27.877C265.441 28.0703 265.696 28.3281 265.884 28.6504C266.077 28.9668 266.174 29.3623 266.174 29.8369C266.174 30.376 266.027 30.8623 265.734 31.2959C265.441 31.7236 264.996 32.0605 264.398 32.3066C263.801 32.5527 263.045 32.6758 262.131 32.6758C261.68 32.6758 261.252 32.6494 260.848 32.5967C260.443 32.5498 260.077 32.4795 259.749 32.3857C259.421 32.292 259.134 32.1807 258.888 32.0518V30.7246C259.298 30.9238 259.778 31.0996 260.329 31.252C260.88 31.4043 261.475 31.4805 262.113 31.4805C262.605 31.4805 263.048 31.4248 263.44 31.3135C263.833 31.1963 264.144 31.0117 264.372 30.7598C264.606 30.502 264.724 30.165 264.724 29.749C264.724 29.3682 264.621 29.0547 264.416 28.8086C264.211 28.5566 263.903 28.3721 263.493 28.2549C263.089 28.1318 262.576 28.0703 261.955 28.0703H260.663V26.875H261.727C262.553 26.875 263.212 26.7578 263.704 26.5234C264.196 26.2891 264.442 25.8936 264.442 25.3369C264.442 24.8564 264.252 24.499 263.871 24.2646C263.49 24.0244 262.945 23.9043 262.236 23.9043C261.709 23.9043 261.243 23.96 260.839 24.0713C260.435 24.1768 259.998 24.3291 259.529 24.5283L259.011 23.3594C259.515 23.1367 260.042 22.9697 260.593 22.8584C261.144 22.7471 261.718 22.6914 262.315 22.6914ZM272.142 22.709C273.29 22.709 274.143 22.9668 274.699 23.4824C275.256 23.998 275.534 24.8213 275.534 25.9521V32.5H274.471L274.189 31.0762H274.119C273.85 31.4277 273.568 31.7236 273.275 31.9639C272.982 32.1982 272.643 32.377 272.256 32.5C271.875 32.6172 271.406 32.6758 270.85 32.6758C270.264 32.6758 269.742 32.5732 269.285 32.3682C268.834 32.1631 268.477 31.8525 268.213 31.4365C267.955 31.0205 267.826 30.4932 267.826 29.8545C267.826 28.8936 268.207 28.1553 268.969 27.6396C269.73 27.124 270.891 26.8428 272.449 26.7959L274.11 26.7256V26.1367C274.11 25.3047 273.932 24.7217 273.574 24.3877C273.217 24.0537 272.713 23.8867 272.062 23.8867C271.559 23.8867 271.078 23.96 270.621 24.1064C270.164 24.2529 269.73 24.4258 269.32 24.625L268.872 23.5176C269.306 23.2949 269.804 23.1045 270.366 22.9463C270.929 22.7881 271.521 22.709 272.142 22.709ZM274.093 27.7539L272.625 27.8154C271.424 27.8623 270.577 28.0586 270.085 28.4043C269.593 28.75 269.347 29.2393 269.347 29.8721C269.347 30.4229 269.514 30.8301 269.848 31.0938C270.182 31.3574 270.624 31.4893 271.175 31.4893C272.03 31.4893 272.73 31.252 273.275 30.7773C273.82 30.3027 274.093 29.5908 274.093 28.6416V27.7539ZM284.156 22.8672H285.765L281.607 27.5166L286.099 32.5H284.385L280.008 27.6133V32.5H278.54V22.8672H280.008V27.543L284.156 22.8672ZM292.365 22.6914C293.566 22.6914 294.524 23.1045 295.239 23.9307C295.954 24.7568 296.312 25.999 296.312 27.6572C296.312 28.7529 296.147 29.6729 295.819 30.417C295.491 31.1611 295.028 31.7236 294.431 32.1045C293.839 32.4854 293.139 32.6758 292.33 32.6758C291.82 32.6758 291.372 32.6084 290.985 32.4736C290.599 32.3389 290.268 32.1572 289.992 31.9287C289.717 31.7002 289.488 31.4512 289.307 31.1816H289.201C289.219 31.4102 289.239 31.6855 289.263 32.0078C289.292 32.3301 289.307 32.6113 289.307 32.8516V36.8066H287.839V22.8672H289.043L289.236 24.291H289.307C289.494 23.998 289.723 23.7314 289.992 23.4912C290.262 23.2451 290.59 23.0518 290.977 22.9111C291.369 22.7646 291.832 22.6914 292.365 22.6914ZM292.11 23.9219C291.442 23.9219 290.903 24.0508 290.493 24.3086C290.089 24.5664 289.793 24.9531 289.605 25.4688C289.418 25.9785 289.318 26.6201 289.307 27.3936V27.6748C289.307 28.4893 289.395 29.1777 289.57 29.7402C289.752 30.3027 290.048 30.7305 290.458 31.0234C290.874 31.3164 291.431 31.4629 292.128 31.4629C292.726 31.4629 293.224 31.3018 293.622 30.9795C294.021 30.6572 294.316 30.209 294.51 29.6348C294.709 29.0547 294.809 28.3896 294.809 27.6396C294.809 26.5029 294.586 25.6006 294.141 24.9326C293.701 24.2588 293.024 23.9219 292.11 23.9219ZM298.86 32.5V22.8672H300.328V26.8398H302.965C303.785 26.8398 304.459 26.9424 304.986 27.1475C305.52 27.3525 305.915 27.6572 306.173 28.0615C306.431 28.4658 306.56 28.9668 306.56 29.5645C306.56 30.1621 306.431 30.6807 306.173 31.1201C305.921 31.5596 305.522 31.8994 304.978 32.1396C304.438 32.3799 303.735 32.5 302.868 32.5H298.86ZM300.328 31.3135H302.728C303.454 31.3135 304.034 31.1846 304.468 30.9268C304.901 30.6689 305.118 30.2383 305.118 29.6348C305.118 29.043 304.916 28.6328 304.512 28.4043C304.107 28.1699 303.527 28.0527 302.771 28.0527H300.328V31.3135ZM308.15 32.5V22.8672H309.609V32.5H308.15ZM319.26 24.1064H316.087V32.5H314.646V24.1064H311.517V22.8672H319.26V24.1064ZM324.771 22.709C325.919 22.709 326.771 22.9668 327.328 23.4824C327.885 23.998 328.163 24.8213 328.163 25.9521V32.5H327.1L326.818 31.0762H326.748C326.479 31.4277 326.197 31.7236 325.904 31.9639C325.611 32.1982 325.271 32.377 324.885 32.5C324.504 32.6172 324.035 32.6758 323.479 32.6758C322.893 32.6758 322.371 32.5732 321.914 32.3682C321.463 32.1631 321.105 31.8525 320.842 31.4365C320.584 31.0205 320.455 30.4932 320.455 29.8545C320.455 28.8936 320.836 28.1553 321.598 27.6396C322.359 27.124 323.52 26.8428 325.078 26.7959L326.739 26.7256V26.1367C326.739 25.3047 326.561 24.7217 326.203 24.3877C325.846 24.0537 325.342 23.8867 324.691 23.8867C324.188 23.8867 323.707 23.96 323.25 24.1064C322.793 24.2529 322.359 24.4258 321.949 24.625L321.501 23.5176C321.935 23.2949 322.433 23.1045 322.995 22.9463C323.558 22.7881 324.149 22.709 324.771 22.709ZM326.722 27.7539L325.254 27.8154C324.053 27.8623 323.206 28.0586 322.714 28.4043C322.222 28.75 321.976 29.2393 321.976 29.8721C321.976 30.4229 322.143 30.8301 322.477 31.0938C322.811 31.3574 323.253 31.4893 323.804 31.4893C324.659 31.4893 325.359 31.252 325.904 30.7773C326.449 30.3027 326.722 29.5908 326.722 28.6416V27.7539ZM332.487 28.9316H331.529L331.125 19.6504H332.892L332.487 28.9316ZM330.949 31.5859C330.949 31.1758 331.049 30.8857 331.248 30.7158C331.447 30.54 331.696 30.4521 331.995 30.4521C332.288 30.4521 332.534 30.54 332.733 30.7158C332.938 30.8857 333.041 31.1758 333.041 31.5859C333.041 31.9902 332.938 32.2861 332.733 32.4736C332.534 32.6553 332.288 32.7461 331.995 32.7461C331.696 32.7461 331.447 32.6553 331.248 32.4736C331.049 32.2861 330.949 31.9902 330.949 31.5859ZM43.7578 57.5V44.6504H53.3291V57.5H51.8525V45.9688H45.252V57.5H43.7578ZM61.1777 47.6914C62.3789 47.6914 63.3369 48.1045 64.0518 48.9307C64.7666 49.7568 65.124 50.999 65.124 52.6572C65.124 53.7529 64.96 54.6729 64.6318 55.417C64.3037 56.1611 63.8408 56.7236 63.2432 57.1045C62.6514 57.4854 61.9512 57.6758 61.1426 57.6758C60.6328 57.6758 60.1846 57.6084 59.7979 57.4736C59.4111 57.3389 59.0801 57.1572 58.8047 56.9287C58.5293 56.7002 58.3008 56.4512 58.1191 56.1816H58.0137C58.0312 56.4102 58.0518 56.6855 58.0752 57.0078C58.1045 57.3301 58.1191 57.6113 58.1191 57.8516V61.8066H56.6514V47.8672H57.8555L58.0488 49.291H58.1191C58.3066 48.998 58.5352 48.7314 58.8047 48.4912C59.0742 48.2451 59.4023 48.0518 59.7891 47.9111C60.1816 47.7646 60.6445 47.6914 61.1777 47.6914ZM60.9229 48.9219C60.2549 48.9219 59.7158 49.0508 59.3057 49.3086C58.9014 49.5664 58.6055 49.9531 58.418 50.4688C58.2305 50.9785 58.1309 51.6201 58.1191 52.3936V52.6748C58.1191 53.4893 58.207 54.1777 58.3828 54.7402C58.5645 55.3027 58.8604 55.7305 59.2705 56.0234C59.6865 56.3164 60.2432 56.4629 60.9404 56.4629C61.5381 56.4629 62.0361 56.3018 62.4346 55.9795C62.833 55.6572 63.1289 55.209 63.3223 54.6348C63.5215 54.0547 63.6211 53.3896 63.6211 52.6396C63.6211 51.5029 63.3984 50.6006 62.9531 49.9326C62.5137 49.2588 61.8369 48.9219 60.9229 48.9219ZM75.9785 52.666C75.9785 53.457 75.876 54.1631 75.6709 54.7842C75.4658 55.4053 75.1699 55.9297 74.7832 56.3574C74.3965 56.7852 73.9277 57.1133 73.377 57.3418C72.832 57.5645 72.2139 57.6758 71.5225 57.6758C70.8779 57.6758 70.2861 57.5645 69.7471 57.3418C69.2139 57.1133 68.751 56.7852 68.3584 56.3574C67.9717 55.9297 67.6699 55.4053 67.4531 54.7842C67.2422 54.1631 67.1367 53.457 67.1367 52.666C67.1367 51.6113 67.3154 50.7148 67.6729 49.9766C68.0303 49.2324 68.54 48.667 69.2021 48.2803C69.8701 47.8877 70.6641 47.6914 71.584 47.6914C72.4629 47.6914 73.2305 47.8877 73.8867 48.2803C74.5488 48.6729 75.0615 49.2412 75.4248 49.9854C75.7939 50.7236 75.9785 51.6172 75.9785 52.666ZM68.6484 52.666C68.6484 53.4395 68.751 54.1104 68.9561 54.6787C69.1611 55.2471 69.4775 55.6865 69.9053 55.9971C70.333 56.3076 70.8838 56.4629 71.5576 56.4629C72.2256 56.4629 72.7734 56.3076 73.2012 55.9971C73.6348 55.6865 73.9541 55.2471 74.1592 54.6787C74.3643 54.1104 74.4668 53.4395 74.4668 52.666C74.4668 51.8984 74.3643 51.2363 74.1592 50.6797C73.9541 50.1172 73.6377 49.6836 73.21 49.3789C72.7822 49.0742 72.2285 48.9219 71.5488 48.9219C70.5469 48.9219 69.8115 49.2529 69.3428 49.915C68.8799 50.5771 68.6484 51.4941 68.6484 52.666ZM79.8896 47.8672V53.9229C79.8896 54.04 79.8867 54.1924 79.8809 54.3799C79.875 54.5615 79.8662 54.7578 79.8545 54.9688C79.8428 55.1738 79.8311 55.373 79.8193 55.5664C79.8135 55.7539 79.8047 55.9092 79.793 56.0322L85.0488 47.8672H86.8418V57.5H85.4795V51.5938C85.4795 51.4062 85.4824 51.166 85.4883 50.873C85.4941 50.5801 85.5029 50.293 85.5146 50.0117C85.5264 49.7246 85.5352 49.502 85.541 49.3438L80.3027 57.5H78.501V47.8672H79.8896ZM86.1211 43.9033C86.0684 44.4951 85.9189 44.9902 85.6729 45.3887C85.4326 45.7871 85.0781 46.0889 84.6094 46.2939C84.1406 46.4932 83.54 46.5928 82.8076 46.5928C82.0518 46.5928 81.4424 46.4961 80.9795 46.3027C80.5225 46.1035 80.1826 45.8047 79.96 45.4062C79.7432 45.0078 79.6143 44.5068 79.5732 43.9033H80.9443C81.0088 44.5479 81.1816 44.9873 81.4629 45.2217C81.7441 45.4561 82.2012 45.5732 82.834 45.5732C83.3965 45.5732 83.8389 45.4502 84.1611 45.2041C84.4834 44.958 84.6768 44.5244 84.7412 43.9033H86.1211ZM97.002 47.8672V56.2607H98.3818V60.8311H96.9668V57.5H90.1465V60.8311H88.749V56.2607H89.5049C90.0557 55.499 90.5127 54.6641 90.876 53.7559C91.2393 52.8477 91.5146 51.8955 91.7021 50.8994C91.8896 49.8975 91.9893 48.8867 92.001 47.8672H97.002ZM95.5869 49.0273H93.3018C93.249 49.8828 93.123 50.7529 92.9238 51.6377C92.7305 52.5225 92.4727 53.3662 92.1504 54.1689C91.8281 54.9658 91.4531 55.6631 91.0254 56.2607H95.5869V49.0273ZM101.687 47.8672V53.9229C101.687 54.04 101.684 54.1924 101.678 54.3799C101.672 54.5615 101.663 54.7578 101.651 54.9688C101.64 55.1738 101.628 55.373 101.616 55.5664C101.61 55.7539 101.602 55.9092 101.59 56.0322L106.846 47.8672H108.639V57.5H107.276V51.5938C107.276 51.4062 107.279 51.166 107.285 50.873C107.291 50.5801 107.3 50.293 107.312 50.0117C107.323 49.7246 107.332 49.502 107.338 49.3438L102.1 57.5H100.298V47.8672H101.687ZM124.072 50.2842C124.072 50.8877 123.896 51.3594 123.545 51.6992C123.193 52.0332 122.739 52.2588 122.183 52.376V52.4463C122.786 52.5283 123.305 52.7451 123.738 53.0967C124.178 53.4424 124.397 53.9727 124.397 54.6875C124.397 55.2383 124.266 55.7246 124.002 56.1465C123.738 56.5684 123.325 56.8994 122.763 57.1396C122.2 57.3799 121.468 57.5 120.565 57.5H116.417V47.8672H120.53C121.222 47.8672 121.831 47.9463 122.358 48.1045C122.892 48.2568 123.311 48.5088 123.615 48.8604C123.92 49.2119 124.072 49.6865 124.072 50.2842ZM122.877 54.6875C122.877 54.1191 122.66 53.709 122.227 53.457C121.799 53.2051 121.175 53.0791 120.354 53.0791H117.885V56.3135H120.39C121.198 56.3135 121.813 56.1904 122.235 55.9443C122.663 55.6924 122.877 55.2734 122.877 54.6875ZM122.587 50.4512C122.587 49.9941 122.42 49.6543 122.086 49.4316C121.752 49.2031 121.204 49.0889 120.442 49.0889H117.885V51.8574H120.188C120.979 51.8574 121.576 51.7432 121.98 51.5146C122.385 51.2861 122.587 50.9316 122.587 50.4512ZM130.611 57.6758C129.744 57.6758 128.979 57.4971 128.317 57.1396C127.655 56.7822 127.14 56.2373 126.771 55.5049C126.401 54.7725 126.217 53.8496 126.217 52.7363C126.217 51.5703 126.41 50.6182 126.797 49.8799C127.189 49.1357 127.729 48.585 128.414 48.2275C129.1 47.8701 129.879 47.6914 130.752 47.6914C131.232 47.6914 131.695 47.7412 132.141 47.8408C132.592 47.9346 132.961 48.0547 133.248 48.2012L132.809 49.4229C132.516 49.3057 132.176 49.2002 131.789 49.1064C131.408 49.0127 131.051 48.9658 130.717 48.9658C130.049 48.9658 129.492 49.1094 129.047 49.3965C128.607 49.6836 128.276 50.1055 128.054 50.6621C127.837 51.2188 127.729 51.9043 127.729 52.7188C127.729 53.498 127.834 54.1631 128.045 54.7139C128.262 55.2646 128.581 55.6865 129.003 55.9795C129.431 56.2666 129.964 56.4102 130.603 56.4102C131.112 56.4102 131.572 56.3574 131.982 56.252C132.393 56.1406 132.765 56.0117 133.099 55.8652V57.166C132.776 57.3301 132.416 57.4561 132.018 57.5439C131.625 57.6318 131.156 57.6758 130.611 57.6758ZM139.093 47.6914C139.913 47.6914 140.616 47.873 141.202 48.2363C141.788 48.5996 142.236 49.1094 142.547 49.7656C142.857 50.416 143.013 51.1777 143.013 52.0508V52.9561H136.359C136.377 54.0869 136.658 54.9482 137.203 55.54C137.748 56.1318 138.516 56.4277 139.506 56.4277C140.115 56.4277 140.654 56.3721 141.123 56.2607C141.592 56.1494 142.078 55.9854 142.582 55.7686V57.0518C142.096 57.2686 141.612 57.4268 141.132 57.5264C140.657 57.626 140.095 57.6758 139.444 57.6758C138.519 57.6758 137.71 57.4883 137.019 57.1133C136.333 56.7324 135.8 56.1758 135.419 55.4434C135.038 54.7109 134.848 53.8145 134.848 52.7539C134.848 51.7168 135.021 50.8203 135.366 50.0645C135.718 49.3027 136.21 48.7168 136.843 48.3066C137.481 47.8965 138.231 47.6914 139.093 47.6914ZM139.075 48.8867C138.296 48.8867 137.675 49.1416 137.212 49.6514C136.749 50.1611 136.474 50.873 136.386 51.7871H141.483C141.478 51.2129 141.387 50.709 141.211 50.2754C141.041 49.8359 140.78 49.4961 140.429 49.2559C140.077 49.0098 139.626 48.8867 139.075 48.8867ZM157.392 57.5H155.906V49.0889H152.979C152.862 50.6064 152.713 51.9072 152.531 52.9912C152.355 54.0693 152.133 54.9512 151.863 55.6367C151.6 56.3164 151.277 56.8174 150.896 57.1396C150.521 57.4561 150.073 57.6143 149.552 57.6143C149.394 57.6143 149.244 57.6055 149.104 57.5879C148.963 57.5703 148.843 57.541 148.743 57.5V56.3926C148.819 56.416 148.898 56.4336 148.98 56.4453C149.068 56.457 149.159 56.4629 149.253 56.4629C149.517 56.4629 149.757 56.3545 149.974 56.1377C150.196 55.915 150.396 55.5811 150.571 55.1357C150.753 54.6904 150.914 54.1279 151.055 53.4482C151.195 52.7627 151.318 51.957 151.424 51.0312C151.535 50.0996 151.632 49.0449 151.714 47.8672H157.392V57.5ZM164.177 47.6914C164.997 47.6914 165.7 47.873 166.286 48.2363C166.872 48.5996 167.32 49.1094 167.631 49.7656C167.941 50.416 168.097 51.1777 168.097 52.0508V52.9561H161.443C161.461 54.0869 161.742 54.9482 162.287 55.54C162.832 56.1318 163.6 56.4277 164.59 56.4277C165.199 56.4277 165.738 56.3721 166.207 56.2607C166.676 56.1494 167.162 55.9854 167.666 55.7686V57.0518C167.18 57.2686 166.696 57.4268 166.216 57.5264C165.741 57.626 165.179 57.6758 164.528 57.6758C163.603 57.6758 162.794 57.4883 162.103 57.1133C161.417 56.7324 160.884 56.1758 160.503 55.4434C160.122 54.7109 159.932 53.8145 159.932 52.7539C159.932 51.7168 160.104 50.8203 160.45 50.0645C160.802 49.3027 161.294 48.7168 161.927 48.3066C162.565 47.8965 163.315 47.6914 164.177 47.6914ZM164.159 48.8867C163.38 48.8867 162.759 49.1416 162.296 49.6514C161.833 50.1611 161.558 50.873 161.47 51.7871H166.567C166.562 51.2129 166.471 50.709 166.295 50.2754C166.125 49.8359 165.864 49.4961 165.513 49.2559C165.161 49.0098 164.71 48.8867 164.159 48.8867ZM176.42 47.8672V49.1064H172.043V57.5H170.575V47.8672H176.42ZM183.961 47.8672H185.569L181.412 52.5166L185.903 57.5H184.189L179.812 52.6133V57.5H178.345V47.8672H179.812V52.543L183.961 47.8672ZM189.032 47.8672V53.9229C189.032 54.04 189.029 54.1924 189.023 54.3799C189.018 54.5615 189.009 54.7578 188.997 54.9688C188.985 55.1738 188.974 55.373 188.962 55.5664C188.956 55.7539 188.947 55.9092 188.936 56.0322L194.191 47.8672H195.984V57.5H194.622V51.5938C194.622 51.4062 194.625 51.166 194.631 50.873C194.637 50.5801 194.646 50.293 194.657 50.0117C194.669 49.7246 194.678 49.502 194.684 49.3438L189.445 57.5H187.644V47.8672H189.032ZM202.796 47.6914C203.616 47.6914 204.319 47.873 204.905 48.2363C205.491 48.5996 205.939 49.1094 206.25 49.7656C206.561 50.416 206.716 51.1777 206.716 52.0508V52.9561H200.062C200.08 54.0869 200.361 54.9482 200.906 55.54C201.451 56.1318 202.219 56.4277 203.209 56.4277C203.818 56.4277 204.357 56.3721 204.826 56.2607C205.295 56.1494 205.781 55.9854 206.285 55.7686V57.0518C205.799 57.2686 205.315 57.4268 204.835 57.5264C204.36 57.626 203.798 57.6758 203.147 57.6758C202.222 57.6758 201.413 57.4883 200.722 57.1133C200.036 56.7324 199.503 56.1758 199.122 55.4434C198.741 54.7109 198.551 53.8145 198.551 52.7539C198.551 51.7168 198.724 50.8203 199.069 50.0645C199.421 49.3027 199.913 48.7168 200.546 48.3066C201.185 47.8965 201.935 47.6914 202.796 47.6914ZM202.778 48.8867C201.999 48.8867 201.378 49.1416 200.915 49.6514C200.452 50.1611 200.177 50.873 200.089 51.7871H205.187C205.181 51.2129 205.09 50.709 204.914 50.2754C204.744 49.8359 204.483 49.4961 204.132 49.2559C203.78 49.0098 203.329 48.8867 202.778 48.8867ZM221.095 57.5H219.609V49.0889H216.683C216.565 50.6064 216.416 51.9072 216.234 52.9912C216.059 54.0693 215.836 54.9512 215.566 55.6367C215.303 56.3164 214.98 56.8174 214.6 57.1396C214.225 57.4561 213.776 57.6143 213.255 57.6143C213.097 57.6143 212.947 57.6055 212.807 57.5879C212.666 57.5703 212.546 57.541 212.446 57.5V56.3926C212.522 56.416 212.602 56.4336 212.684 56.4453C212.771 56.457 212.862 56.4629 212.956 56.4629C213.22 56.4629 213.46 56.3545 213.677 56.1377C213.899 55.915 214.099 55.5811 214.274 55.1357C214.456 54.6904 214.617 54.1279 214.758 53.4482C214.898 52.7627 215.021 51.957 215.127 51.0312C215.238 50.0996 215.335 49.0449 215.417 47.8672H221.095V57.5ZM232.477 52.666C232.477 53.457 232.374 54.1631 232.169 54.7842C231.964 55.4053 231.668 55.9297 231.281 56.3574C230.895 56.7852 230.426 57.1133 229.875 57.3418C229.33 57.5645 228.712 57.6758 228.021 57.6758C227.376 57.6758 226.784 57.5645 226.245 57.3418C225.712 57.1133 225.249 56.7852 224.856 56.3574C224.47 55.9297 224.168 55.4053 223.951 54.7842C223.74 54.1631 223.635 53.457 223.635 52.666C223.635 51.6113 223.813 50.7148 224.171 49.9766C224.528 49.2324 225.038 48.667 225.7 48.2803C226.368 47.8877 227.162 47.6914 228.082 47.6914C228.961 47.6914 229.729 47.8877 230.385 48.2803C231.047 48.6729 231.56 49.2412 231.923 49.9854C232.292 50.7236 232.477 51.6172 232.477 52.666ZM225.146 52.666C225.146 53.4395 225.249 54.1104 225.454 54.6787C225.659 55.2471 225.976 55.6865 226.403 55.9971C226.831 56.3076 227.382 56.4629 228.056 56.4629C228.724 56.4629 229.271 56.3076 229.699 55.9971C230.133 55.6865 230.452 55.2471 230.657 54.6787C230.862 54.1104 230.965 53.4395 230.965 52.666C230.965 51.8984 230.862 51.2363 230.657 50.6797C230.452 50.1172 230.136 49.6836 229.708 49.3789C229.28 49.0742 228.727 48.9219 228.047 48.9219C227.045 48.9219 226.31 49.2529 225.841 49.915C225.378 50.5771 225.146 51.4941 225.146 52.666ZM240.615 47.8672H242.224L238.066 52.5166L242.558 57.5H240.844L236.467 52.6133V57.5H234.999V47.8672H236.467V52.543L240.615 47.8672ZM247.901 47.709C249.05 47.709 249.902 47.9668 250.459 48.4824C251.016 48.998 251.294 49.8213 251.294 50.9521V57.5H250.23L249.949 56.0762H249.879C249.609 56.4277 249.328 56.7236 249.035 56.9639C248.742 57.1982 248.402 57.377 248.016 57.5C247.635 57.6172 247.166 57.6758 246.609 57.6758C246.023 57.6758 245.502 57.5732 245.045 57.3682C244.594 57.1631 244.236 56.8525 243.973 56.4365C243.715 56.0205 243.586 55.4932 243.586 54.8545C243.586 53.8936 243.967 53.1553 244.729 52.6396C245.49 52.124 246.65 51.8428 248.209 51.7959L249.87 51.7256V51.1367C249.87 50.3047 249.691 49.7217 249.334 49.3877C248.977 49.0537 248.473 48.8867 247.822 48.8867C247.318 48.8867 246.838 48.96 246.381 49.1064C245.924 49.2529 245.49 49.4258 245.08 49.625L244.632 48.5176C245.065 48.2949 245.563 48.1045 246.126 47.9463C246.688 47.7881 247.28 47.709 247.901 47.709ZM249.853 52.7539L248.385 52.8154C247.184 52.8623 246.337 53.0586 245.845 53.4043C245.353 53.75 245.106 54.2393 245.106 54.8721C245.106 55.4229 245.273 55.8301 245.607 56.0938C245.941 56.3574 246.384 56.4893 246.935 56.4893C247.79 56.4893 248.49 56.252 249.035 55.7773C249.58 55.3027 249.853 54.5908 249.853 53.6416V52.7539ZM263.678 60.8311H262.254V57.5H254.3V47.8672H255.768V56.2607H260.874V47.8672H262.333V56.2783H263.678V60.8311ZM266.956 47.8672V53.9229C266.956 54.04 266.953 54.1924 266.947 54.3799C266.941 54.5615 266.933 54.7578 266.921 54.9688C266.909 55.1738 266.897 55.373 266.886 55.5664C266.88 55.7539 266.871 55.9092 266.859 56.0322L272.115 47.8672H273.908V57.5H272.546V51.5938C272.546 51.4062 272.549 51.166 272.555 50.873C272.561 50.5801 272.569 50.293 272.581 50.0117C272.593 49.7246 272.602 49.502 272.607 49.3438L267.369 57.5H265.567V47.8672H266.956ZM278.399 47.8672V53.9229C278.399 54.04 278.396 54.1924 278.391 54.3799C278.385 54.5615 278.376 54.7578 278.364 54.9688C278.353 55.1738 278.341 55.373 278.329 55.5664C278.323 55.7539 278.314 55.9092 278.303 56.0322L283.559 47.8672H285.352V57.5H283.989V51.5938C283.989 51.4062 283.992 51.166 283.998 50.873C284.004 50.5801 284.013 50.293 284.024 50.0117C284.036 49.7246 284.045 49.502 284.051 49.3438L278.812 57.5H277.011V47.8672H278.399ZM290.124 55.4082L290.238 55.6104C290.133 56.0381 289.998 56.4951 289.834 56.9814C289.676 57.4678 289.5 57.9541 289.307 58.4404C289.119 58.9326 288.929 59.3926 288.735 59.8203H287.646C287.769 59.3516 287.889 58.8564 288.006 58.335C288.123 57.8193 288.229 57.3096 288.322 56.8057C288.422 56.2959 288.501 55.8301 288.56 55.4082H290.124ZM51.6064 72.8672V82.5H50.1387V74.124H45.0059V82.5H43.5381V72.8672H51.6064ZM59.2266 72.6914C60.4277 72.6914 61.3857 73.1045 62.1006 73.9307C62.8154 74.7568 63.1729 75.999 63.1729 77.6572C63.1729 78.7529 63.0088 79.6729 62.6807 80.417C62.3525 81.1611 61.8896 81.7236 61.292 82.1045C60.7002 82.4854 60 82.6758 59.1914 82.6758C58.6816 82.6758 58.2334 82.6084 57.8467 82.4736C57.46 82.3389 57.1289 82.1572 56.8535 81.9287C56.5781 81.7002 56.3496 81.4512 56.168 81.1816H56.0625C56.0801 81.4102 56.1006 81.6855 56.124 82.0078C56.1533 82.3301 56.168 82.6113 56.168 82.8516V86.8066H54.7002V72.8672H55.9043L56.0977 74.291H56.168C56.3555 73.998 56.584 73.7314 56.8535 73.4912C57.123 73.2451 57.4512 73.0518 57.8379 72.9111C58.2305 72.7646 58.6934 72.6914 59.2266 72.6914ZM58.9717 73.9219C58.3037 73.9219 57.7646 74.0508 57.3545 74.3086C56.9502 74.5664 56.6543 74.9531 56.4668 75.4688C56.2793 75.9785 56.1797 76.6201 56.168 77.3936V77.6748C56.168 78.4893 56.2559 79.1777 56.4316 79.7402C56.6133 80.3027 56.9092 80.7305 57.3193 81.0234C57.7354 81.3164 58.292 81.4629 58.9893 81.4629C59.5869 81.4629 60.085 81.3018 60.4834 80.9795C60.8818 80.6572 61.1777 80.209 61.3711 79.6348C61.5703 79.0547 61.6699 78.3896 61.6699 77.6396C61.6699 76.5029 61.4473 75.6006 61.002 74.9326C60.5625 74.2588 59.8857 73.9219 58.9717 73.9219ZM67.1104 72.8672V78.9229C67.1104 79.04 67.1074 79.1924 67.1016 79.3799C67.0957 79.5615 67.0869 79.7578 67.0752 79.9688C67.0635 80.1738 67.0518 80.373 67.04 80.5664C67.0342 80.7539 67.0254 80.9092 67.0137 81.0322L72.2695 72.8672H74.0625V82.5H72.7002V76.5938C72.7002 76.4062 72.7031 76.166 72.709 75.873C72.7148 75.5801 72.7236 75.293 72.7354 75.0117C72.7471 74.7246 72.7559 74.502 72.7617 74.3438L67.5234 82.5H65.7217V72.8672H67.1104ZM83.3086 72.8672V76.9102H88.6787V72.8672H90.1377V82.5H88.6787V78.1494H83.3086V82.5H81.8408V72.8672H83.3086ZM96.835 72.709C97.9834 72.709 98.8359 72.9668 99.3926 73.4824C99.9492 73.998 100.228 74.8213 100.228 75.9521V82.5H99.1641L98.8828 81.0762H98.8125C98.543 81.4277 98.2617 81.7236 97.9688 81.9639C97.6758 82.1982 97.3359 82.377 96.9492 82.5C96.5684 82.6172 96.0996 82.6758 95.543 82.6758C94.957 82.6758 94.4355 82.5732 93.9785 82.3682C93.5273 82.1631 93.1699 81.8525 92.9062 81.4365C92.6484 81.0205 92.5195 80.4932 92.5195 79.8545C92.5195 78.8936 92.9004 78.1553 93.6621 77.6396C94.4238 77.124 95.584 76.8428 97.1426 76.7959L98.8037 76.7256V76.1367C98.8037 75.3047 98.625 74.7217 98.2676 74.3877C97.9102 74.0537 97.4062 73.8867 96.7559 73.8867C96.252 73.8867 95.7715 73.96 95.3145 74.1064C94.8574 74.2529 94.4238 74.4258 94.0137 74.625L93.5654 73.5176C93.999 73.2949 94.4971 73.1045 95.0596 72.9463C95.6221 72.7881 96.2139 72.709 96.835 72.709ZM98.7861 77.7539L97.3184 77.8154C96.1172 77.8623 95.2705 78.0586 94.7783 78.4043C94.2861 78.75 94.04 79.2393 94.04 79.8721C94.04 80.4229 94.207 80.8301 94.541 81.0938C94.875 81.3574 95.3174 81.4893 95.8682 81.4893C96.7236 81.4893 97.4238 81.252 97.9688 80.7773C98.5137 80.3027 98.7861 79.5908 98.7861 78.6416V77.7539ZM110.889 75.2842C110.889 75.8877 110.713 76.3594 110.361 76.6992C110.01 77.0332 109.556 77.2588 108.999 77.376V77.4463C109.603 77.5283 110.121 77.7451 110.555 78.0967C110.994 78.4424 111.214 78.9727 111.214 79.6875C111.214 80.2383 111.082 80.7246 110.818 81.1465C110.555 81.5684 110.142 81.8994 109.579 82.1396C109.017 82.3799 108.284 82.5 107.382 82.5H103.233V72.8672H107.347C108.038 72.8672 108.647 72.9463 109.175 73.1045C109.708 73.2568 110.127 73.5088 110.432 73.8604C110.736 74.2119 110.889 74.6865 110.889 75.2842ZM109.693 79.6875C109.693 79.1191 109.477 78.709 109.043 78.457C108.615 78.2051 107.991 78.0791 107.171 78.0791H104.701V81.3135H107.206C108.015 81.3135 108.63 81.1904 109.052 80.9443C109.479 80.6924 109.693 80.2734 109.693 79.6875ZM109.403 75.4512C109.403 74.9941 109.236 74.6543 108.902 74.4316C108.568 74.2031 108.021 74.0889 107.259 74.0889H104.701V76.8574H107.004C107.795 76.8574 108.393 76.7432 108.797 76.5146C109.201 76.2861 109.403 75.9316 109.403 75.4512ZM117.278 72.6914C118.099 72.6914 118.802 72.873 119.388 73.2363C119.974 73.5996 120.422 74.1094 120.732 74.7656C121.043 75.416 121.198 76.1777 121.198 77.0508V77.9561H114.545C114.562 79.0869 114.844 79.9482 115.389 80.54C115.934 81.1318 116.701 81.4277 117.691 81.4277C118.301 81.4277 118.84 81.3721 119.309 81.2607C119.777 81.1494 120.264 80.9854 120.768 80.7686V82.0518C120.281 82.2686 119.798 82.4268 119.317 82.5264C118.843 82.626 118.28 82.6758 117.63 82.6758C116.704 82.6758 115.896 82.4883 115.204 82.1133C114.519 81.7324 113.985 81.1758 113.604 80.4434C113.224 79.7109 113.033 78.8145 113.033 77.7539C113.033 76.7168 113.206 75.8203 113.552 75.0645C113.903 74.3027 114.396 73.7168 115.028 73.3066C115.667 72.8965 116.417 72.6914 117.278 72.6914ZM117.261 73.8867C116.481 73.8867 115.86 74.1416 115.397 74.6514C114.935 75.1611 114.659 75.873 114.571 76.7871H119.669C119.663 76.2129 119.572 75.709 119.396 75.2754C119.227 74.8359 118.966 74.4961 118.614 74.2559C118.263 74.0098 117.812 73.8867 117.261 73.8867ZM130.734 72.8672V81.2607H132.114V85.8311H130.699V82.5H123.879V85.8311H122.481V81.2607H123.237C123.788 80.499 124.245 79.6641 124.608 78.7559C124.972 77.8477 125.247 76.8955 125.435 75.8994C125.622 74.8975 125.722 73.8867 125.733 72.8672H130.734ZM129.319 74.0273H127.034C126.981 74.8828 126.855 75.7529 126.656 76.6377C126.463 77.5225 126.205 78.3662 125.883 79.1689C125.561 79.9658 125.186 80.6631 124.758 81.2607H129.319V74.0273ZM137.739 72.6914C138.56 72.6914 139.263 72.873 139.849 73.2363C140.435 73.5996 140.883 74.1094 141.193 74.7656C141.504 75.416 141.659 76.1777 141.659 77.0508V77.9561H135.006C135.023 79.0869 135.305 79.9482 135.85 80.54C136.395 81.1318 137.162 81.4277 138.152 81.4277C138.762 81.4277 139.301 81.3721 139.77 81.2607C140.238 81.1494 140.725 80.9854 141.229 80.7686V82.0518C140.742 82.2686 140.259 82.4268 139.778 82.5264C139.304 82.626 138.741 82.6758 138.091 82.6758C137.165 82.6758 136.356 82.4883 135.665 82.1133C134.979 81.7324 134.446 81.1758 134.065 80.4434C133.685 79.7109 133.494 78.8145 133.494 77.7539C133.494 76.7168 133.667 75.8203 134.013 75.0645C134.364 74.3027 134.856 73.7168 135.489 73.3066C136.128 72.8965 136.878 72.6914 137.739 72.6914ZM137.722 73.8867C136.942 73.8867 136.321 74.1416 135.858 74.6514C135.396 75.1611 135.12 75.873 135.032 76.7871H140.13C140.124 76.2129 140.033 75.709 139.857 75.2754C139.688 74.8359 139.427 74.4961 139.075 74.2559C138.724 74.0098 138.272 73.8867 137.722 73.8867ZM145.605 72.8672V76.9102H150.976V72.8672H152.435V82.5H150.976V78.1494H145.605V82.5H144.138V72.8672H145.605ZM156.917 72.8672V78.9229C156.917 79.04 156.914 79.1924 156.908 79.3799C156.902 79.5615 156.894 79.7578 156.882 79.9688C156.87 80.1738 156.858 80.373 156.847 80.5664C156.841 80.7539 156.832 80.9092 156.82 81.0322L162.076 72.8672H163.869V82.5H162.507V76.5938C162.507 76.4062 162.51 76.166 162.516 75.873C162.521 75.5801 162.53 75.293 162.542 75.0117C162.554 74.7246 162.562 74.502 162.568 74.3438L157.33 82.5H155.528V72.8672H156.917ZM168.36 72.8672V78.9229C168.36 79.04 168.357 79.1924 168.352 79.3799C168.346 79.5615 168.337 79.7578 168.325 79.9688C168.313 80.1738 168.302 80.373 168.29 80.5664C168.284 80.7539 168.275 80.9092 168.264 81.0322L173.52 72.8672H175.312V82.5H173.95V76.5938C173.95 76.4062 173.953 76.166 173.959 75.873C173.965 75.5801 173.974 75.293 173.985 75.0117C173.997 74.7246 174.006 74.502 174.012 74.3438L168.773 82.5H166.972V72.8672H168.36ZM191.396 77.666C191.396 78.457 191.294 79.1631 191.089 79.7842C190.884 80.4053 190.588 80.9297 190.201 81.3574C189.814 81.7852 189.346 82.1133 188.795 82.3418C188.25 82.5645 187.632 82.6758 186.94 82.6758C186.296 82.6758 185.704 82.5645 185.165 82.3418C184.632 82.1133 184.169 81.7852 183.776 81.3574C183.39 80.9297 183.088 80.4053 182.871 79.7842C182.66 79.1631 182.555 78.457 182.555 77.666C182.555 76.6113 182.733 75.7148 183.091 74.9766C183.448 74.2324 183.958 73.667 184.62 73.2803C185.288 72.8877 186.082 72.6914 187.002 72.6914C187.881 72.6914 188.648 72.8877 189.305 73.2803C189.967 73.6729 190.479 74.2412 190.843 74.9854C191.212 75.7236 191.396 76.6172 191.396 77.666ZM184.066 77.666C184.066 78.4395 184.169 79.1104 184.374 79.6787C184.579 80.2471 184.896 80.6865 185.323 80.9971C185.751 81.3076 186.302 81.4629 186.976 81.4629C187.644 81.4629 188.191 81.3076 188.619 80.9971C189.053 80.6865 189.372 80.2471 189.577 79.6787C189.782 79.1104 189.885 78.4395 189.885 77.666C189.885 76.8984 189.782 76.2363 189.577 75.6797C189.372 75.1172 189.056 74.6836 188.628 74.3789C188.2 74.0742 187.646 73.9219 186.967 73.9219C185.965 73.9219 185.229 74.2529 184.761 74.915C184.298 75.5771 184.066 76.4941 184.066 77.666ZM195.387 72.8672V76.9102H200.757V72.8672H202.216V82.5H200.757V78.1494H195.387V82.5H193.919V72.8672H195.387ZM206.698 72.8672V78.9229C206.698 79.04 206.695 79.1924 206.689 79.3799C206.684 79.5615 206.675 79.7578 206.663 79.9688C206.651 80.1738 206.64 80.373 206.628 80.5664C206.622 80.7539 206.613 80.9092 206.602 81.0322L211.857 72.8672H213.65V82.5H212.288V76.5938C212.288 76.4062 212.291 76.166 212.297 75.873C212.303 75.5801 212.312 75.293 212.323 75.0117C212.335 74.7246 212.344 74.502 212.35 74.3438L207.111 82.5H205.31V72.8672H206.698ZM232.714 72.8672L228.706 77.5518L233.057 82.5H231.387L227.168 77.6133V82.5H225.806V77.6133L221.596 82.5H219.926L224.276 77.5518L220.26 72.8672H221.868L225.806 77.543V72.8672H227.168V77.543L231.123 72.8672H232.714ZM238.374 72.6914C239.194 72.6914 239.897 72.873 240.483 73.2363C241.069 73.5996 241.518 74.1094 241.828 74.7656C242.139 75.416 242.294 76.1777 242.294 77.0508V77.9561H235.641C235.658 79.0869 235.939 79.9482 236.484 80.54C237.029 81.1318 237.797 81.4277 238.787 81.4277C239.396 81.4277 239.936 81.3721 240.404 81.2607C240.873 81.1494 241.359 80.9854 241.863 80.7686V82.0518C241.377 82.2686 240.894 82.4268 240.413 82.5264C239.938 82.626 239.376 82.6758 238.726 82.6758C237.8 82.6758 236.991 82.4883 236.3 82.1133C235.614 81.7324 235.081 81.1758 234.7 80.4434C234.319 79.7109 234.129 78.8145 234.129 77.7539C234.129 76.7168 234.302 75.8203 234.647 75.0645C234.999 74.3027 235.491 73.7168 236.124 73.3066C236.763 72.8965 237.513 72.6914 238.374 72.6914ZM238.356 73.8867C237.577 73.8867 236.956 74.1416 236.493 74.6514C236.03 75.1611 235.755 75.873 235.667 76.7871H240.765C240.759 76.2129 240.668 75.709 240.492 75.2754C240.322 74.8359 240.062 74.4961 239.71 74.2559C239.358 74.0098 238.907 73.8867 238.356 73.8867ZM251.997 82.5H250.512V74.0889H247.585C247.468 75.6064 247.318 76.9072 247.137 77.9912C246.961 79.0693 246.738 79.9512 246.469 80.6367C246.205 81.3164 245.883 81.8174 245.502 82.1396C245.127 82.4561 244.679 82.6143 244.157 82.6143C243.999 82.6143 243.85 82.6055 243.709 82.5879C243.568 82.5703 243.448 82.541 243.349 82.5V81.3926C243.425 81.416 243.504 81.4336 243.586 81.4453C243.674 81.457 243.765 81.4629 243.858 81.4629C244.122 81.4629 244.362 81.3545 244.579 81.1377C244.802 80.915 245.001 80.5811 245.177 80.1357C245.358 79.6904 245.52 79.1279 245.66 78.4482C245.801 77.7627 245.924 76.957 246.029 76.0312C246.141 75.0996 246.237 74.0449 246.319 72.8672H251.997V82.5ZM261.639 74.1064H258.466V82.5H257.024V74.1064H253.896V72.8672H261.639V74.1064ZM263.546 82.5V72.8672H265.014V76.8398H267.65C268.471 76.8398 269.145 76.9424 269.672 77.1475C270.205 77.3525 270.601 77.6572 270.858 78.0615C271.116 78.4658 271.245 78.9668 271.245 79.5645C271.245 80.1621 271.116 80.6807 270.858 81.1201C270.606 81.5596 270.208 81.8994 269.663 82.1396C269.124 82.3799 268.421 82.5 267.554 82.5H263.546ZM265.014 81.3135H267.413C268.14 81.3135 268.72 81.1846 269.153 80.9268C269.587 80.6689 269.804 80.2383 269.804 79.6348C269.804 79.043 269.602 78.6328 269.197 78.4043C268.793 78.1699 268.213 78.0527 267.457 78.0527H265.014V81.3135ZM272.836 82.5V72.8672H274.295V82.5H272.836ZM281.089 72.6914C281.909 72.6914 282.612 72.873 283.198 73.2363C283.784 73.5996 284.232 74.1094 284.543 74.7656C284.854 75.416 285.009 76.1777 285.009 77.0508V77.9561H278.355C278.373 79.0869 278.654 79.9482 279.199 80.54C279.744 81.1318 280.512 81.4277 281.502 81.4277C282.111 81.4277 282.65 81.3721 283.119 81.2607C283.588 81.1494 284.074 80.9854 284.578 80.7686V82.0518C284.092 82.2686 283.608 82.4268 283.128 82.5264C282.653 82.626 282.091 82.6758 281.44 82.6758C280.515 82.6758 279.706 82.4883 279.015 82.1133C278.329 81.7324 277.796 81.1758 277.415 80.4434C277.034 79.7109 276.844 78.8145 276.844 77.7539C276.844 76.7168 277.017 75.8203 277.362 75.0645C277.714 74.3027 278.206 73.7168 278.839 73.3066C279.478 72.8965 280.228 72.6914 281.089 72.6914ZM281.071 73.8867C280.292 73.8867 279.671 74.1416 279.208 74.6514C278.745 75.1611 278.47 75.873 278.382 76.7871H283.479C283.474 76.2129 283.383 75.709 283.207 75.2754C283.037 74.8359 282.776 74.4961 282.425 74.2559C282.073 74.0098 281.622 73.8867 281.071 73.8867ZM288.806 78.9316H287.848L287.443 69.6504H289.21L288.806 78.9316ZM287.268 81.5859C287.268 81.1758 287.367 80.8857 287.566 80.7158C287.766 80.54 288.015 80.4521 288.313 80.4521C288.606 80.4521 288.853 80.54 289.052 80.7158C289.257 80.8857 289.359 81.1758 289.359 81.5859C289.359 81.9902 289.257 82.2861 289.052 82.4736C288.853 82.6553 288.606 82.7461 288.313 82.7461C288.015 82.7461 287.766 82.6553 287.566 82.4736C287.367 82.2861 287.268 81.9902 287.268 81.5859Z" fill="black"/>
</svg>
