<svg width="272" height="33" viewBox="0 0 272 33" fill="none" xmlns="http://www.w3.org/2000/svg">
<path d="M155.23 8.1296C152.888 10.2098 146.692 10.5854 143.887 10.5132C138.765 11.9575 128.52 15.5396 128.52 18.3132C128.52 21.7803 135.106 23.2971 153.4 22.8637C171.695 22.4303 193.283 27.6309 195.112 30.2312C196.941 32.8314 225.481 33.2648 232.433 30.2312C239.385 27.1975 260.241 28.4976 265.729 28.4976C271.218 28.4976 274.145 23.2971 265.729 21.7803C257.314 20.2634 258.777 13.1127 256.582 8.1296C254.387 3.14655 230.238 3.36243 225.481 3.36243C220.724 3.36243 209.016 6.61197 201.332 5.31183C193.648 4.01169 175.354 4.44588 169.499 3.36243C163.645 2.27898 158.157 5.52933 155.23 8.1296Z" fill="#F2F2F2" stroke="black"/>
<path d="M12.1457 3.44959C11.0174 4.52815 7.92866 5.79048 6.57709 5.75303C4.109 6.50189 1 6.83453 1 8.27261C1 10.0702 4.86113 11.2665 13.6757 11.0418C22.4903 10.8171 24.8213 13.5835 25.7027 14.9317C26.5842 16.2799 40.335 16.5046 43.6845 14.9317C47.0341 13.3588 57.0827 14.0329 59.7271 14.0329C62.3715 14.0329 63.7818 11.3365 59.7271 10.5501C55.6724 9.7636 56.3775 6.05605 55.3198 3.47241C54.262 0.888781 42.6268 1.00071 40.335 1.00071C38.0432 1.00071 32.4018 2.68554 28.6997 2.01144C24.9976 1.33734 24.1148 3.56912 21.2941 3.00736C18.4735 2.44561 13.556 2.10139 12.1457 3.44959Z" fill="#F2F2F2" stroke="black"/>
</svg>
