<svg width="1326" height="306" viewBox="0 0 1326 306" fill="none" xmlns="http://www.w3.org/2000/svg">
<path d="M972.819 81.578L1311 81.5784C1318.46 81.5784 1324.5 87.6226 1324.5 95.0784V290.474C1324.5 297.93 1318.46 303.974 1311 303.974H15C7.54419 303.974 1.5 297.93 1.5 290.474V95.0784C1.5 87.6226 7.54419 81.5784 15 81.5784L860.722 81.578C860.807 81.434 860.904 81.2684 861.015 81.0808L861.228 80.7188C861.837 79.6838 862.727 78.1792 863.882 76.3128C866.19 72.5807 869.551 67.4019 873.835 61.6151C882.389 50.0604 894.682 35.9992 909.681 26.2172C924.502 16.5509 942.031 9.80653 957.544 5.83523C965.306 3.8483 972.587 2.54911 978.801 1.92795C984.983 1.30985 990.213 1.35192 993.823 2.11512C995.026 2.36958 996.043 2.91275 996.705 3.79405C997.376 4.68704 997.546 5.74311 997.396 6.7346C997.109 8.63899 995.655 10.4718 993.761 11.6644C993.471 11.847 993.177 12.0318 992.879 12.2188C988.013 15.2775 982.193 18.9353 976.869 23.3688C971.215 28.0762 966.238 33.5655 963.586 39.9823C958.267 52.8533 958.607 62.0116 961.19 68.5221C963.717 74.8902 968.488 78.9737 972.819 81.578Z" fill="white" stroke="#231F20" stroke-width="3"/>
</svg>
