<svg width="1326" height="306" viewBox="0 0 1326 306" fill="none" xmlns="http://www.w3.org/2000/svg">
<path d="M353.181 81.578L15 81.5784C7.54414 81.5784 1.5 87.6226 1.5 95.0784V290.474C1.5 297.93 7.54414 303.974 15 303.974H1311C1318.46 303.974 1324.5 297.93 1324.5 290.474V95.0784C1324.5 87.6226 1318.46 81.5784 1311 81.5784L465.278 81.578C465.193 81.434 465.096 81.2684 464.985 81.0808L464.772 80.7188C464.163 79.6838 463.273 78.1792 462.118 76.3128C459.81 72.5807 456.449 67.4019 452.165 61.6151C443.611 50.0604 431.318 35.9992 416.319 26.2172C401.498 16.5509 383.969 9.80653 368.456 5.83523C360.694 3.8483 353.413 2.54911 347.199 1.92795C341.017 1.30985 335.787 1.35192 332.177 2.11512C330.974 2.36958 329.957 2.91275 329.295 3.79405C328.624 4.68704 328.454 5.74311 328.604 6.7346C328.891 8.63899 330.345 10.4718 332.239 11.6644C332.529 11.847 332.823 12.0318 333.121 12.2188C337.987 15.2775 343.807 18.9353 349.131 23.3688C354.785 28.0762 359.762 33.5655 362.414 39.9823C367.733 52.8533 367.393 62.0116 364.81 68.5221C362.283 74.8902 357.512 78.9737 353.181 81.578Z" fill="white" stroke="#231F20" stroke-width="3"/>
</svg>
